<svg xmlns="http://www.w3.org/2000/svg" xmlns:xlink="http://www.w3.org/1999/xlink" width="100" zoomAndPan="magnify" viewBox="0 0 375 374.999991" height="100" preserveAspectRatio="xMidYMid meet" version="1.0"><defs><filter x="0%" y="0%" width="100%" height="100%" id="6aeb9a8cd3"><feColorMatrix values="0 0 0 0 1 0 0 0 0 1 0 0 0 0 1 0 0 0 1 0" color-interpolation-filters="sRGB"/></filter><g/><mask id="636e24eb97"><g filter="url(#6aeb9a8cd3)"><rect x="-37.5" width="450" fill="#000000" y="-37.499999" height="449.999989" fill-opacity="0.8"/></g></mask><clipPath id="4284080e44"><path d="M 19 15 L 106 15 L 106 106 L 19 106 Z M 19 15 " clip-rule="nonzero"/></clipPath><clipPath id="be42e97e15"><path d="M -1.523438 52.289062 L 71.085938 0.394531 L 119.929688 68.734375 L 47.320312 120.628906 Z M -1.523438 52.289062 " clip-rule="nonzero"/></clipPath><clipPath id="e089fc14e2"><path d="M -1.523438 52.289062 L 71.085938 0.394531 L 119.929688 68.734375 L 47.320312 120.628906 Z M -1.523438 52.289062 " clip-rule="nonzero"/></clipPath><clipPath id="9d632dca6f"><rect x="0" width="120" y="0" height="119"/></clipPath><clipPath id="de352eccf4"><path d="M 282.546875 126.742188 L 316.074219 126.742188 L 316.074219 253.964844 L 282.546875 253.964844 Z M 282.546875 126.742188 " clip-rule="nonzero"/></clipPath><clipPath id="bbc6899844"><path d="M 269 126.1875 L 300 126.1875 L 300 246 L 269 246 Z M 269 126.1875 " clip-rule="nonzero"/></clipPath><clipPath id="876837e88c"><path d="M 323.835938 141.421875 L 349.203125 141.421875 L 349.203125 246.949219 L 323.835938 246.949219 Z M 323.835938 141.421875 " clip-rule="nonzero"/></clipPath><clipPath id="4522522035"><path d="M 113 52 L 261.9375 52 L 261.9375 254 L 113 254 Z M 113 52 " clip-rule="nonzero"/></clipPath></defs><g mask="url(#636e24eb97)"><g transform="matrix(1, 0, 0, 1, 27, 111)"><g clip-path="url(#9d632dca6f)"><g clip-path="url(#4284080e44)"><g clip-path="url(#be42e97e15)"><g clip-path="url(#e089fc14e2)"><path fill="#c0aa65" d="M 47.699219 17.210938 C 47.554688 17.320312 47.40625 17.433594 47.265625 17.554688 C 41.988281 22.894531 43.226562 31.625 46.757812 37.578125 C 49.699219 43.171875 56.617188 48.109375 63.023438 45.257812 C 63.945312 44.832031 64.738281 44.15625 65.378906 43.375 C 70.496094 36.308594 67.8125 26.179688 62.117188 20.269531 C 58.785156 16.207031 52.253906 13.867188 47.699219 17.210938 Z M 22.382812 35.71875 C 18.703125 38.484375 18.503906 44.363281 20.460938 48.355469 C 24.261719 56.316406 33.753906 62.800781 42.714844 59.773438 C 43.511719 59.429688 44.234375 58.9375 44.855469 58.332031 C 49.238281 53.945312 47.359375 46.859375 43.933594 42.5 C 39.535156 36.667969 31.539062 32 24.171875 34.742188 C 23.5 34.996094 22.90625 35.324219 22.382812 35.71875 Z M 78.546875 25.90625 C 72.351562 30.917969 72.53125 40.550781 76.207031 47.035156 C 78.460938 51.996094 84.9375 56.15625 90.148438 52.957031 C 97.007812 47.925781 96.445312 37.15625 92.09375 30.652344 C 89.523438 26.132812 83.390625 22.792969 78.546875 25.90625 Z M 22.914062 67.832031 C 20.140625 69.777344 18.613281 73.363281 19.714844 76.808594 C 22.664062 86.011719 34.265625 92.050781 43.320312 87.957031 C 47.039062 86.15625 48.128906 81.535156 46.761719 77.890625 C 43.828125 70.105469 34.824219 65.0625 26.65625 66.414062 C 25.277344 66.566406 24 67.074219 22.914062 67.835938 Z M 61.53125 60.519531 C 56.140625 64.390625 52.613281 71.050781 52.035156 77.628906 C 51.65625 85.082031 52.515625 92.824219 55.59375 99.6875 C 57.210938 105.054688 64.09375 107.644531 68.730469 104.375 C 74.394531 100.558594 76.441406 93.335938 81.761719 89.105469 C 85.9375 85.042969 91.875 84.480469 97.226562 83.066406 C 101.910156 82.035156 106.445312 77.90625 105.515625 72.738281 C 104.144531 67.773438 99.027344 65.09375 94.773438 62.855469 C 87.140625 59.746094 79.042969 56.527344 70.636719 57.183594 C 67.242188 57.40625 64.164062 58.632812 61.53125 60.519531 Z M 61.53125 60.519531 " fill-opacity="1" fill-rule="nonzero"/></g></g></g></g></g></g><g clip-path="url(#de352eccf4)"><path fill="#7e6c4e" d="M 307.410156 241.1875 C 303.566406 242.363281 298.902344 238.101562 297.589844 233.699219 C 296.3125 229.421875 297.722656 223.453125 301.484375 222.242188 C 305.328125 221.007812 310.109375 225.234375 311.4375 229.707031 C 312.722656 234.03125 311.203125 240.027344 307.410156 241.1875 Z M 316.0625 234.875 C 316.957031 229.554688 313.523438 225.53125 311.953125 223.679688 C 308.992188 220.195312 305.386719 218.535156 303.503906 217.8125 C 297.472656 187.492188 291.445312 157.175781 285.417969 126.859375 C 284.972656 127.304688 284.136719 128.222656 283.5 129.574219 C 281.976562 132.820312 282.757812 136.148438 282.992188 137.222656 C 284.035156 142.054688 289.863281 174.539062 298.050781 219.472656 C 292.1875 227.511719 292.558594 236.621094 297.648438 241.089844 C 300.605469 243.6875 304.550781 244.1875 306.894531 244.253906 C 308.019531 245.847656 308.332031 247.195312 308.394531 248.171875 C 308.515625 250.09375 307.703125 251.097656 308.46875 252.425781 C 308.863281 253.113281 309.746094 254.007812 310.847656 253.964844 C 311.945312 253.921875 312.929688 252.953125 313.128906 251.988281 C 313.398438 250.671875 312.085938 249.9375 311.027344 247.871094 C 310.226562 246.304688 309.988281 244.789062 309.945312 243.59375 C 310.921875 242.957031 315.191406 240.050781 316.0625 234.875 " fill-opacity="1" fill-rule="nonzero"/></g><g clip-path="url(#bbc6899844)"><path fill="#c0aa65" d="M 288.292969 234.238281 C 287.011719 239.117188 281.980469 243.746094 278.15625 242.554688 C 274.457031 241.398438 272.964844 235.144531 274.304688 230.605469 C 275.65625 226.019531 280.394531 221.492188 284.207031 222.625 C 287.921875 223.730469 289.453125 229.816406 288.292969 234.238281 Z M 296.652344 126.773438 C 296.148438 126.4375 295.671875 126.269531 295.390625 126.1875 C 294.796875 141.214844 294.207031 156.238281 293.617188 171.265625 C 292.421875 172.160156 291.226562 173.054688 290.03125 173.949219 C 287.457031 188.945312 284.882812 203.9375 282.308594 218.933594 C 281.375 219.191406 272.917969 221.671875 270.191406 229.28125 C 268.695312 233.445312 268.402344 240.578125 273.625 244.0625 C 278.015625 246.992188 283.460938 245.433594 283.722656 245.355469 C 290.46875 243.316406 293.285156 235.683594 292.808594 230.019531 C 292.335938 224.363281 288.570312 220.59375 287.152344 219.304688 C 288.835938 210.988281 290.519531 202.675781 292.203125 194.363281 C 294.308594 193.769531 296.414062 193.175781 298.519531 192.582031 C 298.785156 163.445312 298.917969 142.335938 299.246094 136.070312 C 299.339844 134.296875 299.707031 128.835938 296.652344 126.773438 " fill-opacity="1" fill-rule="nonzero"/></g><path fill="#f8fcfb" d="M 300.164062 215.828125 C 301.234375 215.828125 301.238281 214.167969 300.164062 214.167969 C 299.097656 214.167969 299.09375 215.828125 300.164062 215.828125 Z M 299.058594 209.917969 C 300.125 209.917969 300.128906 208.253906 299.058594 208.253906 C 297.988281 208.253906 297.984375 209.917969 299.058594 209.917969 Z M 297.949219 204.375 C 299.019531 204.375 299.019531 202.710938 297.949219 202.710938 C 296.878906 202.710938 296.875 204.375 297.949219 204.375 Z M 296.839844 198.464844 C 297.910156 198.464844 297.910156 196.800781 296.839844 196.800781 C 295.769531 196.800781 295.769531 198.464844 296.839844 198.464844 Z M 295.132812 180.867188 C 296.117188 181.285156 295.269531 182.714844 294.292969 182.304688 C 293.636719 182.027344 292.78125 182.503906 292.492188 183.109375 C 292.171875 183.785156 292.644531 184.472656 293.269531 184.75 C 294.671875 185.375 295.730469 183.359375 294.585938 182.476562 C 293.75 181.832031 294.578125 180.386719 295.425781 181.039062 C 296.652344 181.988281 297.046875 183.640625 296.332031 185.042969 C 295.589844 186.496094 293.839844 186.90625 292.429688 186.1875 C 291.007812 185.457031 290.265625 183.734375 291.058594 182.269531 C 291.855469 180.796875 293.625 180.234375 295.132812 180.867188 " fill-opacity="1" fill-rule="nonzero"/><g clip-path="url(#876837e88c)"><path fill="#c0aa65" d="M 323.933594 194.078125 C 323.933594 179.542969 323.929688 165.007812 323.933594 150.472656 C 323.9375 146.609375 325.964844 143.835938 329.894531 142.214844 C 330.941406 141.785156 332.167969 141.519531 333.316406 141.5 C 337.820312 141.414062 342.328125 141.460938 346.832031 141.460938 C 347.839844 141.460938 348.605469 141.828125 349.011719 142.667969 C 349.371094 143.402344 349.265625 144.203125 348.605469 144.652344 C 347.992188 145.070312 347.101562 145.355469 346.324219 145.367188 C 341.953125 145.433594 337.585938 145.398438 333.214844 145.402344 C 332.875 145.402344 332.488281 145.332031 332.210938 145.453125 C 331.867188 145.601562 331.34375 145.964844 331.386719 146.148438 C 331.457031 146.472656 331.851562 146.808594 332.210938 146.984375 C 332.5 147.125 332.9375 147.050781 333.308594 147.050781 C 337.746094 147.054688 342.183594 147.054688 346.621094 147.054688 C 346.925781 147.054688 347.230469 147.042969 347.535156 147.066406 C 348.550781 147.144531 349.21875 147.769531 349.171875 148.578125 C 349.121094 149.371094 348.480469 149.910156 347.476562 149.917969 C 345.070312 149.9375 342.667969 149.929688 340.261719 149.929688 C 337.890625 149.929688 335.519531 149.921875 333.148438 149.9375 C 332.71875 149.941406 332.238281 149.964844 331.875 150.136719 C 331.613281 150.257812 331.316406 150.667969 331.367188 150.890625 C 331.433594 151.167969 331.792969 151.46875 332.105469 151.597656 C 332.421875 151.722656 332.839844 151.65625 333.210938 151.65625 C 337.511719 151.65625 341.8125 151.65625 346.117188 151.65625 C 346.488281 151.65625 346.859375 151.652344 347.234375 151.660156 C 348.441406 151.683594 349.152344 152.210938 349.171875 153.089844 C 349.191406 154.003906 348.472656 154.566406 347.203125 154.582031 C 345.644531 154.601562 344.085938 154.59375 342.527344 154.59375 C 339.414062 154.59375 336.296875 154.589844 333.179688 154.59375 C 332.808594 154.59375 332.386719 154.539062 332.082031 154.675781 C 331.769531 154.8125 331.378906 155.148438 331.371094 155.40625 C 331.363281 155.664062 331.722656 156.046875 332.027344 156.171875 C 332.402344 156.324219 332.886719 156.292969 333.324219 156.296875 C 337.894531 156.304688 342.46875 156.289062 347.039062 156.316406 C 347.554688 156.316406 348.25 156.375 348.53125 156.660156 C 348.894531 157.027344 349.136719 157.683594 349.054688 158.164062 C 348.914062 158.929688 348.167969 159.199219 347.285156 159.199219 C 342.609375 159.183594 337.933594 159.191406 333.261719 159.195312 C 332.855469 159.195312 332.402344 159.140625 332.058594 159.277344 C 331.75 159.40625 331.382812 159.757812 331.371094 160.023438 C 331.363281 160.269531 331.734375 160.640625 332.035156 160.757812 C 332.417969 160.902344 332.898438 160.875 333.335938 160.875 C 337.566406 160.878906 341.800781 160.875 346.035156 160.875 C 346.339844 160.875 346.648438 160.871094 346.953125 160.875 C 348.410156 160.898438 349.167969 161.398438 349.171875 162.339844 C 349.175781 163.273438 348.378906 163.828125 346.972656 163.832031 C 342.433594 163.835938 337.894531 163.835938 333.355469 163.835938 C 333.152344 163.835938 332.949219 163.832031 332.746094 163.835938 C 332.085938 163.855469 331.332031 163.851562 331.34375 164.652344 C 331.355469 165.433594 332.117188 165.476562 332.765625 165.480469 C 337.40625 165.496094 342.046875 165.492188 346.6875 165.496094 C 348.421875 165.5 349.191406 165.964844 349.164062 166.988281 C 349.144531 168 348.332031 168.496094 346.628906 168.496094 C 342.089844 168.503906 337.550781 168.492188 333.011719 168.503906 C 332.339844 168.503906 331.382812 168.316406 331.355469 169.234375 C 331.328125 170.210938 332.308594 170.058594 333.023438 170.058594 C 337.527344 170.070312 342.035156 170.058594 346.539062 170.070312 C 347.039062 170.070312 347.5625 170.101562 348.039062 170.226562 C 348.800781 170.425781 349.222656 170.929688 349.152344 171.648438 C 349.085938 172.390625 348.597656 172.863281 347.757812 172.984375 C 347.359375 173.039062 346.945312 173.023438 346.539062 173.027344 C 342.101562 173.027344 337.664062 173.027344 333.226562 173.03125 C 332.890625 173.03125 332.488281 172.953125 332.226562 173.082031 C 331.867188 173.261719 331.386719 173.605469 331.382812 173.882812 C 331.378906 174.144531 331.882812 174.484375 332.242188 174.65625 C 332.507812 174.785156 332.90625 174.703125 333.246094 174.703125 C 337.917969 174.707031 342.59375 174.699219 347.265625 174.710938 C 348.4375 174.714844 349.152344 175.292969 349.164062 176.183594 C 349.175781 177.027344 348.527344 177.5625 347.367188 177.640625 C 346.960938 177.671875 346.554688 177.667969 346.148438 177.667969 C 343.371094 177.671875 340.59375 177.671875 337.816406 177.671875 C 336.121094 177.671875 334.429688 177.667969 332.734375 177.671875 C 332.0625 177.675781 331.324219 177.71875 331.347656 178.503906 C 331.367188 179.277344 332.113281 179.308594 332.777344 179.308594 C 337.386719 179.3125 341.992188 179.308594 346.597656 179.3125 C 347.039062 179.3125 347.496094 179.292969 347.910156 179.394531 C 348.75 179.601562 349.242188 180.117188 349.15625 180.921875 C 349.074219 181.667969 348.554688 182.109375 347.722656 182.222656 C 347.390625 182.269531 347.046875 182.25 346.707031 182.25 C 342.203125 182.25 337.699219 182.25 333.191406 182.25 C 332.855469 182.25 332.460938 182.179688 332.191406 182.308594 C 331.847656 182.46875 331.351562 182.820312 331.378906 183.046875 C 331.417969 183.359375 331.828125 183.726562 332.183594 183.886719 C 332.511719 184.039062 332.980469 183.96875 333.382812 183.96875 C 337.921875 183.972656 342.460938 183.964844 347 183.984375 C 347.492188 183.984375 348.152344 183.992188 348.425781 184.253906 C 348.8125 184.617188 349.171875 185.269531 349.0625 185.707031 C 348.957031 186.148438 348.316406 186.558594 347.804688 186.820312 C 347.46875 186.992188 346.945312 186.898438 346.507812 186.898438 C 342.101562 186.902344 337.699219 186.902344 333.296875 186.902344 C 332.957031 186.902344 332.566406 186.816406 332.292969 186.9375 C 331.925781 187.09375 331.453125 187.375 331.371094 187.675781 C 331.222656 188.21875 331.726562 188.453125 332.300781 188.484375 C 332.640625 188.503906 332.980469 188.503906 333.316406 188.503906 C 337.652344 188.503906 341.988281 188.496094 346.324219 188.507812 C 346.894531 188.511719 347.484375 188.53125 348.03125 188.65625 C 348.816406 188.835938 349.199219 189.375 349.160156 190.078125 C 349.117188 190.773438 348.679688 191.261719 347.886719 191.410156 C 347.496094 191.484375 347.082031 191.480469 346.675781 191.480469 C 342.238281 191.484375 337.800781 191.480469 333.363281 191.488281 C 332.925781 191.488281 332.445312 191.441406 332.0625 191.582031 C 331.753906 191.691406 331.378906 192.050781 331.375 192.304688 C 331.367188 192.554688 331.738281 192.921875 332.039062 193.035156 C 332.421875 193.179688 332.902344 193.136719 333.339844 193.136719 C 337.574219 193.144531 341.808594 193.140625 346.042969 193.140625 C 346.515625 193.140625 346.992188 193.125 347.464844 193.160156 C 348.542969 193.234375 349.15625 193.773438 349.171875 194.621094 C 349.183594 195.429688 348.519531 196.027344 347.488281 196.105469 C 347.082031 196.136719 346.675781 196.125 346.269531 196.125 C 341.933594 196.125 337.597656 196.125 333.261719 196.125 C 332.921875 196.125 332.527344 196.046875 332.257812 196.167969 C 331.898438 196.335938 331.632812 196.667969 331.324219 196.925781 C 331.628906 197.195312 331.886719 197.542969 332.25 197.703125 C 332.550781 197.839844 332.980469 197.765625 333.351562 197.765625 C 337.753906 197.765625 342.160156 197.765625 346.5625 197.765625 C 346.832031 197.765625 347.101562 197.757812 347.375 197.769531 C 348.480469 197.808594 349.171875 198.371094 349.175781 199.230469 C 349.183594 200.101562 348.53125 200.640625 347.378906 200.644531 C 342.738281 200.65625 338.097656 200.652344 333.457031 200.652344 C 333.152344 200.652344 332.84375 200.636719 332.542969 200.671875 C 331.90625 200.746094 331.28125 200.910156 331.339844 201.625 C 331.394531 202.300781 332.019531 202.367188 332.621094 202.367188 C 336.449219 202.375 340.277344 202.371094 344.101562 202.371094 C 345.121094 202.371094 346.136719 202.367188 347.152344 202.378906 C 348.425781 202.390625 349.164062 202.925781 349.175781 203.828125 C 349.1875 204.714844 348.433594 205.300781 347.183594 205.304688 C 342.578125 205.316406 337.972656 205.3125 333.367188 205.316406 C 333.027344 205.316406 332.632812 205.230469 332.363281 205.351562 C 331.96875 205.535156 331.667969 205.871094 331.324219 206.144531 C 331.660156 206.425781 331.957031 206.773438 332.351562 206.96875 C 332.613281 207.101562 333.011719 207.023438 333.347656 207.023438 C 337.988281 207.027344 342.632812 207.039062 347.269531 207.023438 C 348.25 207.019531 348.929688 207.308594 349.136719 208.191406 C 349.367188 209.167969 348.570312 209.910156 347.285156 209.910156 C 342.609375 209.921875 337.933594 209.914062 333.261719 209.917969 C 332.921875 209.917969 332.527344 209.839844 332.261719 209.964844 C 331.894531 210.140625 331.40625 210.46875 331.390625 210.75 C 331.375 211.007812 331.863281 211.398438 332.222656 211.535156 C 332.597656 211.679688 333.089844 211.601562 333.527344 211.601562 C 337.832031 211.605469 342.132812 211.601562 346.433594 211.605469 C 346.871094 211.605469 347.320312 211.589844 347.75 211.648438 C 348.585938 211.765625 349.097656 212.222656 349.164062 212.96875 C 349.226562 213.71875 348.78125 214.238281 347.980469 214.457031 C 347.605469 214.558594 347.183594 214.554688 346.777344 214.554688 C 342.238281 214.5625 337.699219 214.5625 333.160156 214.5625 C 332.855469 214.5625 332.507812 214.492188 332.257812 214.601562 C 331.90625 214.753906 331.351562 215.074219 331.382812 215.265625 C 331.429688 215.585938 331.804688 215.96875 332.15625 216.128906 C 332.515625 216.289062 333.015625 216.234375 333.453125 216.234375 C 337.890625 216.238281 342.328125 216.230469 346.765625 216.238281 C 347.203125 216.238281 347.75 216.164062 348.050781 216.363281 C 348.511719 216.664062 348.980469 217.132812 349.121094 217.601562 C 349.308594 218.21875 348.917969 218.789062 348.164062 218.992188 C 347.75 219.101562 347.296875 219.121094 346.863281 219.125 C 342.390625 219.132812 337.917969 219.128906 333.449219 219.132812 C 333.007812 219.132812 332.523438 219.082031 332.144531 219.230469 C 331.808594 219.359375 331.382812 219.730469 331.386719 219.996094 C 331.386719 220.25 331.839844 220.574219 332.175781 220.730469 C 332.449219 220.859375 332.839844 220.785156 333.179688 220.785156 C 337.582031 220.785156 341.984375 220.785156 346.386719 220.789062 C 346.828125 220.789062 347.273438 220.769531 347.707031 220.828125 C 348.597656 220.941406 349.179688 221.558594 349.171875 222.308594 C 349.164062 223.082031 348.589844 223.628906 347.65625 223.722656 C 347.253906 223.757812 346.84375 223.75 346.4375 223.75 C 342.070312 223.753906 337.699219 223.753906 333.328125 223.757812 C 333.125 223.757812 332.921875 223.75 332.71875 223.761719 C 332.066406 223.800781 331.3125 223.816406 331.335938 224.613281 C 331.359375 225.398438 332.097656 225.421875 332.757812 225.421875 C 337.363281 225.425781 341.972656 225.425781 346.578125 225.425781 C 346.949219 225.425781 347.328125 225.402344 347.695312 225.449219 C 348.578125 225.566406 349.101562 226.035156 349.15625 226.824219 C 349.214844 227.628906 348.734375 228.140625 347.863281 228.3125 C 347.40625 228.402344 346.921875 228.40625 346.449219 228.40625 C 342.011719 228.414062 337.574219 228.410156 333.136719 228.414062 C 332.800781 228.414062 332.414062 228.347656 332.136719 228.46875 C 331.816406 228.605469 331.363281 228.933594 331.382812 229.144531 C 331.414062 229.4375 331.773438 229.792969 332.101562 229.953125 C 332.390625 230.097656 332.828125 230.027344 333.199219 230.027344 C 337.632812 230.03125 342.070312 230.03125 346.507812 230.03125 C 346.847656 230.03125 347.1875 230.023438 347.523438 230.046875 C 348.550781 230.128906 349.199219 230.726562 349.175781 231.554688 C 349.148438 232.390625 348.492188 232.953125 347.441406 232.957031 C 342.699219 232.96875 337.957031 232.960938 333.210938 232.964844 C 332.875 232.96875 332.484375 232.886719 332.210938 233.007812 C 331.867188 233.160156 331.414062 233.460938 331.378906 233.734375 C 331.347656 234 331.71875 234.425781 332.03125 234.570312 C 332.394531 234.734375 332.886719 234.6875 333.324219 234.6875 C 337.933594 234.695312 342.539062 234.683594 347.144531 234.710938 C 347.652344 234.714844 348.335938 234.800781 348.621094 235.09375 C 348.960938 235.445312 349.191406 236.113281 349.046875 236.535156 C 348.90625 236.953125 348.292969 237.335938 347.789062 237.539062 C 347.363281 237.710938 346.789062 237.621094 346.285156 237.621094 C 341.882812 237.621094 337.476562 237.621094 333.074219 237.621094 C 332.738281 237.621094 332.34375 237.558594 332.074219 237.6875 C 331.765625 237.835938 331.382812 238.160156 331.375 238.414062 C 331.367188 238.664062 331.746094 239.023438 332.050781 239.144531 C 332.394531 239.285156 332.847656 239.222656 333.253906 239.222656 C 337.726562 239.226562 342.195312 239.222656 346.667969 239.234375 C 348.410156 239.234375 349.171875 239.703125 349.164062 240.734375 C 349.160156 241.785156 348.433594 242.226562 346.675781 242.226562 C 342.207031 242.230469 337.734375 242.230469 333.261719 242.234375 C 332.992188 242.234375 332.722656 242.234375 332.449219 242.242188 C 331.847656 242.261719 331.34375 242.441406 331.332031 243.046875 C 331.316406 243.675781 331.875 243.824219 332.445312 243.859375 C 332.984375 243.894531 333.53125 243.882812 334.070312 243.882812 C 338.40625 243.886719 342.742188 243.886719 347.078125 243.886719 C 347.804688 243.886719 348.5 243.925781 348.921875 244.589844 C 349.480469 245.476562 349.023438 246.480469 347.90625 246.695312 C 347.546875 246.765625 347.167969 246.757812 346.796875 246.757812 C 342.597656 246.761719 338.394531 246.710938 334.195312 246.769531 C 328.371094 246.851562 323.855469 242.585938 323.890625 237.589844 C 324 223.085938 323.929688 208.582031 323.933594 194.078125 " fill-opacity="1" fill-rule="nonzero"/></g><path fill="#7e6c4e" d="M 327.640625 239.417969 C 327.253906 239.417969 326.941406 239.101562 326.941406 238.714844 L 326.941406 148.65625 C 326.941406 148.269531 327.253906 147.953125 327.640625 147.953125 C 328.027344 147.953125 328.34375 148.269531 328.34375 148.65625 L 328.34375 238.714844 C 328.34375 239.101562 328.027344 239.417969 327.640625 239.417969 " fill-opacity="1" fill-rule="nonzero"/><path fill="#7e6c4e" d="M 126.175781 203.28125 C 125.984375 206.601562 125.796875 209.8125 125.605469 213.039062 C 127.691406 210.066406 128.335938 206.925781 127.28125 203.503906 C 126.945312 202.429688 126.269531 201.984375 125.332031 202.480469 C 123.816406 203.292969 122.128906 204.050781 121.011719 205.273438 C 119.242188 207.210938 117.875 209.507812 116.386719 211.585938 C 116.25 210.804688 116.070312 209.804688 115.902344 208.800781 C 115.195312 211.773438 115.480469 214.585938 117.039062 217.210938 C 118.820312 210.339844 122.425781 204.609375 126.175781 203.28125 Z M 126.175781 203.28125 " fill-opacity="1" fill-rule="nonzero"/><path fill="#7e6c4e" d="M 127.976562 233.078125 C 125.699219 231.296875 123.320312 229.421875 120.632812 227.3125 C 122.582031 230.335938 124.933594 232.277344 127.976562 233.078125 Z M 127.976562 233.078125 " fill-opacity="1" fill-rule="nonzero"/><path fill="#7e6c4e" d="M 163.386719 82.871094 C 164.945312 81.640625 166.515625 80.398438 168.074219 79.164062 C 167.96875 79.039062 167.863281 78.910156 167.769531 78.785156 C 166.1875 80.007812 164.617188 81.238281 163.039062 82.460938 C 163.15625 82.597656 163.269531 82.734375 163.386719 82.871094 Z M 163.386719 82.871094 " fill-opacity="1" fill-rule="nonzero"/><path fill="#7e6c4e" d="M 147.855469 86.570312 C 146.910156 87.390625 145.960938 88.222656 145.011719 89.046875 C 145.160156 89.203125 145.296875 89.351562 145.445312 89.511719 C 146.382812 88.675781 147.308594 87.84375 148.246094 87.011719 C 148.109375 86.855469 147.984375 86.71875 147.855469 86.570312 Z M 147.855469 86.570312 " fill-opacity="1" fill-rule="nonzero"/><path fill="#7e6c4e" d="M 217.179688 184.824219 C 217.539062 184.011719 217.898438 183.203125 218.285156 182.328125 C 218.085938 182.359375 217.917969 182.378906 217.757812 182.410156 C 217.613281 179.050781 217.476562 175.679688 217.328125 172.320312 C 217.074219 172.296875 216.820312 172.265625 216.570312 172.246094 C 217.148438 178.144531 215.820312 183.675781 213.144531 189.144531 C 216.179688 188.480469 219.496094 185.265625 219.960938 182.71875 C 219.035156 183.558594 218.246094 184.277344 217.445312 184.992188 C 217.359375 184.941406 217.273438 184.875 217.179688 184.824219 Z M 217.179688 184.824219 " fill-opacity="1" fill-rule="nonzero"/><path fill="#7e6c4e" d="M 173.511719 177.671875 C 172.984375 181.980469 174.4375 185.824219 176.535156 189.722656 C 175.585938 189.363281 174.878906 189.113281 174.027344 188.785156 C 175.363281 191.386719 178.355469 194.09375 180.601562 194.546875 C 180.378906 193.664062 180.359375 192.839844 179.988281 192.25 C 177.09375 187.742188 174.238281 183.210938 173.511719 177.671875 Z M 173.511719 177.671875 " fill-opacity="1" fill-rule="nonzero"/><path fill="#7e6c4e" d="M 249.199219 210.332031 C 252.9375 214.640625 255.160156 219.527344 255.824219 225.363281 C 256.984375 221.054688 252.726562 211.425781 249.199219 210.332031 Z M 249.199219 210.332031 " fill-opacity="1" fill-rule="nonzero"/><path fill="#7e6c4e" d="M 226.175781 205.664062 C 227.96875 208.488281 229.769531 211.300781 231.804688 214.503906 C 230.855469 210.613281 228.8125 207.960938 226.175781 205.664062 Z M 226.175781 205.664062 " fill-opacity="1" fill-rule="nonzero"/><path fill="#7e6c4e" d="M 250.199219 219.179688 C 251.820312 221.402344 253.433594 223.617188 255.054688 225.839844 C 255.203125 225.734375 255.351562 225.628906 255.496094 225.523438 C 253.894531 223.277344 252.304688 221.023438 250.703125 218.78125 C 250.535156 218.90625 250.367188 219.042969 250.199219 219.179688 Z M 250.199219 219.179688 " fill-opacity="1" fill-rule="nonzero"/><path fill="#7e6c4e" d="M 221.59375 216.671875 C 222.847656 218.230469 224.113281 219.800781 225.367188 221.359375 C 225.515625 221.265625 225.660156 221.160156 225.808594 221.066406 C 224.535156 219.496094 223.25 217.9375 221.972656 216.367188 C 221.847656 216.472656 221.722656 216.566406 221.59375 216.671875 Z M 221.59375 216.671875 " fill-opacity="1" fill-rule="nonzero"/><g clip-path="url(#4522522035)"><path fill="#7e6c4e" d="M 261.734375 215.386719 C 261.753906 213.914062 261.703125 212.382812 261.34375 210.953125 C 260.324219 206.820312 258.015625 203.535156 254.242188 201.164062 C 256.75 200.40625 258.121094 198.910156 258.164062 196.496094 C 258.195312 194.789062 257.941406 193.082031 256.140625 191.765625 C 256.066406 192.355469 256.023438 192.628906 256.003906 192.914062 C 255.875 195.960938 254.359375 196.886719 251.882812 195.042969 C 249.828125 193.515625 247.859375 191.609375 246.5 189.460938 C 244.613281 186.476562 243.097656 183.210938 241.832031 179.902344 C 238.914062 172.285156 236.269531 164.554688 233.445312 156.90625 C 232.054688 153.144531 230.570312 149.234375 227.460938 146.675781 C 224.617188 144.324219 222.382812 142.0625 222.753906 138.109375 C 222.804688 137.476562 222.269531 136.6875 222.5 136.191406 C 223.671875 133.707031 224.996094 131.292969 226.355469 128.679688 C 228.917969 133.105469 231.898438 136.867188 236.261719 139.5 C 236.398438 137.636719 236.261719 136.023438 236.691406 134.570312 C 237.441406 132.03125 238.207031 129.714844 241.023438 128.132812 C 245.511719 125.613281 246.816406 120.15625 250.15625 116.40625 C 252.230469 114.078125 253.042969 110.613281 254.359375 107.777344 C 254.539062 108.179688 254.792969 108.769531 255.214844 109.75 C 257.140625 105.417969 257.53125 101.320312 256.742188 96.589844 C 257.5625 97.800781 258.089844 98.582031 258.890625 99.75 C 259.386719 95.292969 258.164062 91.765625 256.085938 88.425781 C 253.949219 84.980469 250.820312 82.734375 247.101562 81.070312 C 250.515625 78.691406 251.664062 77.246094 251.472656 75.65625 C 246.648438 77.457031 243.71875 76.605469 240.359375 72.464844 C 238.167969 69.765625 235.574219 67.53125 232.371094 66.121094 C 231.117188 65.574219 229.800781 65.195312 228.621094 64.773438 C 230.191406 63.804688 231.738281 62.84375 233.300781 61.875 C 233.214844 61.6875 233.121094 61.496094 233.035156 61.316406 C 232.679688 61.316406 232.332031 61.316406 231.972656 61.316406 C 228.738281 61.316406 225.503906 61.316406 222.269531 61.316406 C 218.917969 61.304688 215.558594 61.296875 212.207031 61.273438 C 211.847656 61.273438 211.40625 61.273438 211.144531 61.085938 C 207.59375 58.558594 203.640625 57.113281 199.175781 56.703125 C 200.542969 55.492188 201.746094 54.40625 203.230469 53.046875 C 197.300781 51.046875 192.347656 52.4375 187.332031 55.574219 C 187.988281 54.351562 188.417969 53.550781 188.851562 52.75 C 188.753906 52.59375 188.660156 52.425781 188.554688 52.265625 C 186.921875 53.027344 185.246094 53.710938 183.65625 54.5625 C 181.949219 55.46875 180.316406 56.523438 178.632812 57.523438 C 176.082031 56.828125 176.367188 59.640625 175.21875 60.675781 C 172.320312 59.695312 169.390625 59.03125 166.136719 59.664062 C 166.484375 60.410156 166.738281 60.957031 166.914062 61.339844 C 165.261719 61.632812 163.710938 61.90625 162.152344 62.179688 C 162.175781 62.339844 162.207031 62.507812 162.226562 62.664062 C 165.273438 63.296875 168.328125 63.941406 171.65625 64.636719 C 170.738281 63.382812 169.960938 62.316406 169.179688 61.242188 C 169.277344 61.105469 169.371094 60.980469 169.464844 60.84375 C 172.140625 61.832031 174.828125 62.835938 177.820312 63.949219 C 177.640625 62.980469 177.484375 62.402344 177.429688 61.800781 C 177.378906 61.191406 177.417969 60.570312 177.417969 59.535156 C 178.210938 60.632812 178.683594 61.285156 179.261719 62.074219 C 180.738281 58.273438 182.867188 55.996094 185.5 55.183594 C 185.089844 56.554688 184.679688 57.945312 184.265625 59.324219 C 184.425781 59.484375 184.582031 59.632812 184.742188 59.789062 C 189.355469 55.679688 194.464844 52.867188 200.375 53.121094 C 198.902344 54.699219 197.300781 56.429688 195.699219 58.144531 C 195.773438 58.324219 195.847656 58.515625 195.910156 58.695312 C 204.453125 58.261719 210.722656 62.8125 216.75 67.964844 C 215.03125 67.648438 213.3125 67.332031 211.597656 67.015625 C 215.378906 70.113281 218.800781 73.339844 220.855469 77.964844 C 219.402344 77.785156 218.074219 77.617188 216.957031 77.476562 C 219.371094 81.566406 221.804688 85.675781 224.226562 89.785156 C 224.121094 89.847656 224.027344 89.921875 223.921875 89.984375 C 222.226562 88.953125 220.519531 87.929688 218.824219 86.898438 C 221.289062 90.332031 220.574219 94.21875 221.078125 97.621094 C 218.402344 95.851562 215.894531 93.746094 213.027344 92.40625 C 209.164062 90.59375 205.558594 92.964844 205.042969 97.199219 C 204.328125 103.101562 208.5 109.949219 214.007812 112.203125 C 215.589844 112.847656 217.074219 113.816406 218.433594 114.859375 C 219.109375 115.386719 219.394531 116.429688 220.015625 117.511719 C 219.117188 117.300781 218.71875 117.21875 217.726562 116.984375 C 221.699219 120.683594 220.128906 124.171875 218.527344 127.742188 C 217.8125 127.214844 217.234375 126.785156 216.609375 126.320312 C 214.15625 130.945312 210.027344 131.9375 205.570312 131.589844 C 201.324219 131.261719 197.699219 129.300781 194.6875 125.910156 C 197.550781 124.992188 199.933594 123.917969 201.25 120.558594 C 199.152344 121.621094 197.691406 121.539062 196.382812 119.609375 C 197.046875 119.894531 197.363281 120.03125 197.679688 120.167969 C 199.554688 120.925781 200.808594 120.441406 201.628906 118.628906 C 202.664062 116.34375 201.535156 113.855469 198.691406 112.910156 C 194.804688 111.613281 191.03125 112.097656 187.691406 114.585938 C 185.804688 115.984375 185.308594 118.082031 186.34375 120.074219 C 186.722656 120.800781 187.386719 121.570312 188.101562 121.863281 C 188.859375 122.167969 189.832031 121.9375 190.714844 121.9375 C 190.757812 122.023438 190.800781 122.097656 190.839844 122.179688 C 189.957031 122.464844 189.070312 122.757812 187.734375 123.191406 C 188.859375 123.941406 189.609375 124.582031 190.472656 124.960938 C 191.410156 125.382812 192.453125 125.5625 193.90625 125.984375 C 193.148438 127.269531 192.675781 128.511719 191.84375 129.40625 C 187.679688 133.832031 180.769531 134.652344 175.566406 131.316406 C 174.425781 130.585938 173.796875 130.746094 173.132812 131.746094 C 172.859375 132.15625 172.5625 132.546875 172.257812 132.980469 C 170.265625 129.902344 170.203125 126.617188 171.085938 122.992188 C 170.507812 123.285156 170.246094 123.433594 169.972656 123.550781 C 169.730469 123.644531 169.464844 123.707031 169.191406 123.792969 C 168.726562 119.839844 169.730469 117.503906 173.722656 114.996094 C 179.546875 111.328125 180.160156 104.394531 178.832031 99.042969 C 178.113281 96.179688 175.605469 94.96875 172.824219 96.085938 C 171.363281 96.675781 169.949219 97.601562 168.78125 98.675781 C 167.148438 100.183594 165.765625 101.960938 164.261719 103.648438 C 163.597656 102.171875 162.914062 100.625 162.058594 98.726562 C 161.457031 99.960938 161.046875 100.804688 160.59375 101.730469 C 158.707031 99.042969 159.539062 96.105469 159.613281 92.945312 C 158.699219 94.15625 158.023438 95.050781 157.347656 95.9375 C 157.140625 95.863281 156.9375 95.800781 156.726562 95.726562 C 157.042969 92.921875 157.371094 90.132812 157.707031 87.171875 C 156.265625 87.707031 154.875 88.222656 153.210938 88.835938 C 155.253906 81.828125 158.308594 76.035156 165.335938 72.800781 C 164.164062 72.664062 163.511719 72.589844 162.847656 72.503906 C 162.765625 72.347656 162.679688 72.179688 162.597656 72.019531 C 165.09375 70.398438 167.589844 68.777344 170.402344 66.941406 C 168.929688 65.972656 167.472656 65.015625 165.800781 63.917969 C 165.871094 64.46875 165.96875 64.867188 165.925781 64.878906 C 159.265625 67.300781 153.304688 72.222656 145.421875 70.292969 C 145.328125 70.503906 145.246094 70.726562 145.148438 70.9375 C 146.507812 72.328125 147.867188 73.726562 149.207031 75.085938 C 144.167969 77.089844 140.796875 80.945312 138.269531 85.582031 C 136.890625 88.097656 134.847656 89.46875 132.117188 89.425781 C 129.734375 89.394531 127.367188 88.816406 124.921875 88.46875 C 125.734375 91.710938 128.652344 93.070312 131.714844 94.324219 C 124.519531 99.214844 121.71875 106.578125 123.414062 111.171875 C 124.617188 109.230469 125.828125 107.292969 127.027344 105.355469 C 126.671875 112.160156 125.027344 118.957031 131.136719 124.550781 C 131.210938 122.960938 131.273438 121.695312 131.335938 120.421875 C 133.339844 125.339844 136.445312 129.300781 141.21875 132.609375 C 136.445312 125.308594 131.484375 118.585938 132.433594 109.558594 C 132.136719 109.570312 131.84375 109.578125 131.546875 109.578125 C 130.8125 112.886719 130.082031 116.207031 129.386719 119.316406 C 128.25 116.796875 128.230469 115.320312 129.355469 106.882812 C 129.050781 107.019531 128.757812 107.144531 128.492188 107.261719 C 127.417969 104.933594 129.273438 103.417969 129.714844 101.394531 C 128.367188 102.488281 127.019531 103.597656 125.320312 104.988281 C 127.300781 99.75 130.601562 96.253906 135.476562 93.648438 C 133.699219 92.945312 132.402344 92.429688 130.777344 91.785156 C 134.328125 91.425781 137.351562 90.722656 139.175781 87.730469 C 142.316406 82.578125 145.800781 77.773438 152.027344 74.65625 C 151.261719 74.210938 150.5 73.769531 149.996094 73.476562 C 152.324219 72.738281 154.632812 72.191406 156.78125 71.273438 C 159.582031 70.082031 162.25 68.554688 165.019531 67.257812 C 165.863281 66.859375 166.832031 66.742188 167.746094 66.5 C 167.84375 66.648438 167.9375 66.785156 168.03125 66.933594 C 158.941406 72.242188 154.042969 80.523438 151.070312 90.636719 C 152.511719 90.46875 153.589844 90.351562 154.421875 90.257812 C 154.84375 92.324219 155.15625 94.34375 155.726562 96.292969 C 155.894531 96.863281 156.78125 97.222656 157.644531 97.925781 C 157.9375 99.222656 158.253906 101.128906 158.824219 102.953125 C 161.3125 111.011719 162.597656 119.21875 161.921875 127.667969 C 161.574219 132.0625 160.648438 136.328125 158.632812 140.449219 C 156.023438 134.992188 150.480469 129.355469 146.582031 128.007812 C 148.488281 130.566406 150.46875 133.222656 152.449219 135.867188 C 152.292969 135.992188 152.132812 136.109375 151.976562 136.234375 C 146.042969 131.398438 139.609375 127.058594 136.109375 119.367188 C 136.171875 126.585938 145.738281 136.644531 153.882812 140.324219 C 153.988281 139.382812 154.09375 138.519531 154.1875 137.65625 C 154.335938 137.59375 154.484375 137.539062 154.632812 137.476562 C 155.820312 139.691406 157.023438 141.902344 158.296875 144.261719 C 161.34375 142.039062 162.289062 138.140625 163.976562 134.601562 C 164.753906 135.8125 165.449219 136.898438 165.882812 137.574219 C 164.039062 141.34375 164.21875 144.84375 165.304688 148.445312 C 161.257812 151.382812 159.128906 155.492188 158.109375 160.285156 C 157.210938 164.5 157.148438 168.789062 158.117188 172.929688 C 159.332031 178.125 158.203125 182.886719 156 187.414062 C 153.484375 192.597656 150.144531 196.929688 143.117188 195.664062 C 143.980469 198.5 146.222656 199.246094 148.835938 199.710938 C 143.472656 204.261719 139.957031 209.425781 140.429688 216.429688 C 140.585938 216.515625 140.746094 216.597656 140.902344 216.695312 C 141.945312 215.125 143 213.554688 144.023438 212.015625 C 144.023438 215.714844 144.023438 219.339844 144.023438 223.089844 C 140.660156 223.300781 137.363281 222.71875 134.308594 220.90625 C 131.074219 218.992188 130.09375 215.808594 129.523438 212.382812 C 127.691406 219.097656 130.738281 223.511719 136.339844 226.808594 C 134.910156 226.679688 133.570312 226.46875 132.273438 226.101562 C 131.011719 225.734375 129.789062 225.207031 128.199219 224.625 C 130.9375 227.777344 135.679688 228.746094 138.628906 226.933594 C 137.457031 225.847656 136.308594 224.796875 135.519531 224.070312 C 138.039062 224.351562 140.851562 224.648438 143.644531 225.027344 C 144.136719 225.089844 144.855469 225.492188 144.980469 225.890625 C 145.992188 228.957031 146.972656 232.042969 147.761719 235.171875 C 148.089844 236.488281 148.648438 236.796875 149.660156 236.140625 C 150.628906 235.519531 151.449219 234.6875 152.113281 234.128906 C 154.527344 236.226562 156.863281 238.25 159.234375 240.304688 C 157.992188 243.199219 157.992188 243.199219 154.808594 243.515625 C 153.441406 243.652344 152.082031 243.769531 150.710938 243.886719 C 147.109375 244.191406 143.515625 244.550781 139.914062 244.75 C 138.238281 244.84375 136.617188 244.402344 135.265625 243.054688 C 136.308594 242.863281 137.183594 242.695312 138.070312 242.535156 C 121.359375 238.816406 114.1875 227.988281 114.113281 211.574219 C 111.941406 218.484375 113.425781 224.902344 116.832031 230.925781 C 120.242188 236.972656 125.152344 241.453125 132.464844 243.644531 C 130.0625 243.992188 128.207031 244.253906 126.355469 244.519531 C 126.363281 244.738281 126.363281 244.972656 126.375 245.191406 C 131.316406 246.328125 136.40625 246.308594 141.441406 246.53125 C 146.519531 246.75 151.617188 246.582031 156.75 246.582031 C 157.242188 250.996094 157.800781 251.523438 162.734375 252.007812 C 164.15625 252.144531 165.578125 252.386719 167.011719 252.492188 C 172.363281 252.902344 177.714844 253.378906 183.046875 252.304688 C 186.839844 251.535156 188.367188 249.828125 188.566406 245.929688 C 188.597656 245.402344 188.648438 244.875 188.660156 244.664062 C 193.339844 244.664062 197.804688 244.664062 202.230469 244.664062 C 202.894531 249.859375 203.527344 250.648438 208.46875 251.925781 C 216.472656 253.980469 224.523438 253.894531 232.550781 251.996094 C 237.429688 250.847656 238.25 249.773438 238.441406 244.875 C 238.441406 244.761719 238.546875 244.65625 238.484375 244.78125 C 240.800781 244.179688 243.066406 243.863281 245.078125 242.980469 C 247.027344 242.125 248.914062 241.738281 251 241.757812 C 254.234375 241.777344 256.960938 240.460938 259.574219 238.1875 C 258.585938 237.921875 257.859375 237.734375 256.929688 237.492188 C 260.617188 231.378906 261.671875 224.921875 260.535156 218.085938 C 260.480469 217.789062 260.660156 217.429688 260.808594 217.148438 C 261.113281 216.535156 261.722656 215.976562 261.734375 215.386719 Z M 227.808594 92.398438 C 226.039062 87.285156 223.890625 82.988281 220.625 79.070312 C 221.40625 79.070312 222.027344 79.070312 223.070312 79.070312 C 221.078125 74.582031 218.664062 70.820312 214.714844 68.101562 C 215.714844 68.292969 216.714844 68.480469 218.222656 68.753906 C 217.011719 66.121094 215.050781 64.613281 213.523438 62.496094 C 217.453125 62.949219 221.375 63.390625 225.523438 63.867188 C 224.964844 64.605469 224.542969 65.152344 224.019531 65.828125 C 224.25 65.972656 224.386719 66.132812 224.542969 66.140625 C 230.738281 66.679688 235.332031 70.039062 239.25 74.550781 C 241.222656 76.816406 243.570312 78.269531 247.058594 78.679688 C 245.550781 79.394531 244.425781 79.933594 242.972656 80.617188 C 248.460938 83.242188 253.242188 86.382812 255.824219 92.46875 C 254.769531 91.722656 254.085938 91.238281 253.410156 90.753906 C 254.832031 94.796875 255.601562 98.800781 254.917969 103.164062 C 254.191406 101.265625 253.515625 99.519531 252.851562 97.769531 C 252.652344 97.8125 252.453125 97.84375 252.253906 97.886719 C 252.515625 102.972656 252.050781 107.925781 249.945312 112.929688 C 249.660156 110.792969 249.40625 108.925781 249.15625 107.0625 C 248.976562 107.050781 248.785156 107.050781 248.605469 107.039062 C 247.828125 113.953125 245.164062 120.0625 240.917969 125.636719 C 241.023438 123.65625 241.128906 121.78125 241.222656 119.90625 C 241.054688 119.871094 240.875 119.839844 240.707031 119.808594 C 238.640625 124.824219 236.574219 129.828125 234.277344 135.414062 C 232.730469 130.933594 231.289062 126.753906 229.695312 122.136719 C 229.929688 125.160156 230.128906 127.773438 230.339844 130.628906 C 228.328125 127.046875 227.03125 123.382812 226.589844 119.566406 C 225.945312 113.953125 225.820312 108.273438 225.410156 102.617188 C 225.238281 100.265625 224.933594 97.925781 224.609375 95.589844 C 224.523438 94.96875 224.113281 94.398438 223.460938 93.882812 C 223.460938 95.578125 223.460938 97.273438 223.460938 98.960938 C 223.386719 98.960938 223.3125 98.960938 223.238281 98.960938 C 222.953125 96.285156 222.679688 93.609375 222.394531 90.921875 C 224.019531 91.386719 225.691406 91.828125 227.808594 92.398438 Z M 209.097656 93.964844 C 210.109375 93.964844 210.921875 94.957031 210.921875 96.167969 C 210.921875 97.378906 210.101562 98.371094 209.097656 98.371094 C 208.089844 98.371094 207.277344 97.378906 207.277344 96.167969 C 207.277344 94.957031 208.097656 93.964844 209.097656 93.964844 Z M 188.039062 117.449219 C 188.523438 115.742188 189.660156 114.910156 192.925781 114.289062 C 195.277344 113.847656 197.753906 113.382812 199.554688 115.742188 C 195.425781 114.488281 191.578125 114.804688 188.039062 117.449219 Z M 175.816406 97.167969 C 176.828125 97.167969 177.640625 98.160156 177.640625 99.371094 C 177.640625 100.582031 176.820312 101.574219 175.816406 101.574219 C 174.808594 101.574219 173.996094 100.582031 173.996094 99.371094 C 173.996094 98.160156 174.816406 97.167969 175.816406 97.167969 Z M 165.144531 130.207031 C 164.417969 127.140625 165.125 123.761719 165.039062 120.515625 C 164.902344 115.492188 163.808594 110.65625 162.121094 105.914062 C 161.660156 104.617188 161.554688 103.207031 161.277344 101.847656 C 161.46875 101.804688 161.660156 101.773438 161.859375 101.730469 C 162.257812 102.910156 162.617188 104.089844 163.058594 105.25 C 163.933594 107.546875 164.238281 107.597656 165.789062 105.789062 C 166.558594 104.890625 167.316406 103.984375 168.179688 102.964844 C 169.917969 106.882812 172.941406 107.746094 176.871094 106.734375 C 176.417969 109.253906 175.292969 110.96875 173.109375 112.066406 C 169.824219 113.71875 167.359375 116.1875 167.011719 120 C 166.863281 121.589844 167.472656 123.253906 167.8125 124.878906 C 168.054688 126.035156 168.589844 127.164062 168.652344 128.324219 C 168.800781 131.242188 170.054688 133.652344 171.570312 135.980469 C 171.886719 135.84375 172.046875 135.824219 172.097656 135.738281 C 173.773438 132.726562 173.742188 132.777344 176.964844 134.304688 C 178.335938 134.949219 179.496094 135.644531 180.433594 136.941406 C 181.761719 138.785156 185.625 139.859375 187.871094 139.34375 C 188.859375 141.386719 190.925781 141.828125 194.421875 141.15625 C 194.960938 141.386719 195.519531 141.851562 196.046875 141.816406 C 198.058594 141.703125 199.976562 140.015625 200.21875 138.183594 C 198.964844 138.984375 197.796875 139.730469 196.625 140.480469 C 196.605469 140.269531 196.582031 140.058594 196.550781 139.847656 C 195.792969 139.710938 195.035156 139.488281 194.265625 139.46875 C 193.464844 139.457031 192.652344 139.722656 191.851562 139.722656 C 190.609375 139.722656 189.429688 139.523438 189.460938 137.636719 C 187.890625 137.992188 186.46875 138.320312 185.636719 138.511719 C 183.878906 137.402344 182.519531 136.5625 180.738281 135.445312 C 186.691406 135.632812 191.167969 133.464844 194.550781 128.914062 C 202.09375 134.71875 209.710938 135.898438 217.476562 129.089844 C 217.726562 129.480469 217.960938 129.820312 218.179688 130.175781 C 218.402344 130.535156 218.613281 130.894531 219.046875 131.597656 C 220.847656 127.195312 222.871094 123.296875 222.046875 118.683594 C 221.480469 115.449219 219.929688 112.992188 216.96875 111.519531 C 216.019531 111.042969 215.0625 110.558594 214.0625 110.242188 C 210.375 109.085938 209.058594 106.082031 207.847656 102.488281 C 210.109375 103.5 212.15625 103.828125 214.167969 102.835938 C 216.136719 101.878906 217.296875 100.257812 217.71875 97.757812 C 218.65625 98.769531 219.425781 99.632812 220.234375 100.457031 C 220.972656 101.195312 221.753906 101.890625 222.523438 102.605469 C 222.691406 102.457031 222.859375 102.320312 223.027344 102.171875 C 222.910156 103.765625 222.742188 105.34375 222.679688 106.933594 C 222.449219 113.140625 223.027344 119.25 224.796875 125.246094 C 225.082031 126.195312 224.882812 127.4375 224.511719 128.40625 C 220.773438 138.375 212.785156 143.15625 203.074219 145.789062 C 202.664062 145.90625 202.082031 146.0625 201.808594 145.875 C 199.996094 144.640625 198.070312 145.484375 196.195312 145.367188 C 192.085938 145.117188 188.070312 147.140625 183.917969 145.683594 C 180.054688 144.335938 176.070312 143.28125 172.246094 141.828125 C 171.128906 141.40625 170.128906 140.164062 169.496094 139.058594 C 167.863281 136.191406 165.894531 133.328125 165.144531 130.207031 Z M 203.0625 148.78125 C 203.0625 150.574219 203.0625 152.25 203.0625 154.449219 C 201.863281 151.164062 202.039062 149.003906 203.0625 148.78125 Z M 198.660156 156.199219 C 198.660156 153.679688 198.660156 151.164062 198.660156 148.320312 C 200.785156 150.339844 200.34375 155.410156 198.660156 156.199219 Z M 191.726562 157 C 191.527344 156.988281 191.328125 157.019531 191.304688 156.980469 C 190.007812 154.027344 189.914062 150.996094 190.839844 147.960938 C 190.988281 147.464844 191.769531 147.160156 192.253906 146.769531 C 190.527344 150.226562 192.023438 153.703125 191.726562 157 Z M 150.617188 225.753906 C 150.324219 228.050781 150.015625 230.359375 149.722656 232.65625 C 147.4375 226.914062 145.433594 221.191406 145.179688 215.007812 C 145.042969 211.742188 145.65625 208.800781 148.203125 206.527344 C 148.445312 206.304688 148.605469 205.988281 148.804688 205.714844 C 148.710938 205.609375 148.625 205.503906 148.53125 205.398438 C 147.066406 206.453125 145.601562 207.515625 143.8125 208.800781 C 146.203125 204.589844 148.699219 200.933594 152.683594 198.195312 C 151.429688 198.140625 150.300781 198.089844 149.164062 198.035156 C 155.949219 194.664062 158.085938 188.226562 159.972656 181.632812 C 160.171875 181.640625 160.363281 181.652344 160.5625 181.664062 C 160.648438 182.410156 160.972656 183.242188 160.761719 183.898438 C 158.507812 191.039062 158.949219 198.140625 160.6875 205.304688 C 161.449219 208.445312 161.828125 211.679688 162.257812 214.890625 C 162.425781 216.15625 162.785156 216.800781 164.25 216.175781 C 164.304688 222.214844 163.523438 227.964844 161.152344 233.59375 C 161.660156 233.804688 162.070312 233.980469 162.753906 234.265625 C 162.363281 235.46875 161.953125 236.691406 161.5 238.089844 C 156 235.289062 152.765625 231.085938 150.617188 225.753906 Z M 249.070312 240.796875 C 250.386719 239.28125 251.390625 238.121094 252.421875 236.933594 C 252.863281 237.574219 253.359375 238.292969 253.992188 239.21875 C 252.441406 239.714844 250.96875 240.1875 249.070312 240.796875 Z M 258.878906 224.417969 C 258.542969 229.050781 256.867188 233.246094 254.316406 237.425781 C 253.644531 235.835938 253.0625 234.46875 252.390625 232.867188 C 249.132812 238.566406 244.339844 241.398438 238.355469 241.757812 C 236.628906 238.21875 235.007812 234.886719 233.394531 231.601562 C 235.523438 231.265625 235.703125 231.074219 234.667969 229.09375 C 232.886719 225.667969 232.519531 222.234375 233.4375 218.421875 C 234.070312 215.808594 233.667969 212.976562 234.089844 210.289062 C 234.449219 207.980469 234.625 205.011719 236.101562 203.640625 C 238.589844 201.332031 238.136719 198.574219 238.523438 196.023438 C 239.335938 190.660156 238.789062 185.308594 236.882812 180.179688 C 236.4375 178.988281 235.734375 177.902344 234.871094 176.847656 C 236.082031 183.148438 237.09375 189.394531 236.175781 196.191406 C 235.679688 195.023438 235.355469 194.265625 235.039062 193.496094 C 234.804688 197.960938 234.457031 202.300781 232.773438 206.652344 C 231.984375 205.429688 231.351562 204.453125 230.71875 203.460938 C 230.625 203.492188 230.539062 203.515625 230.445312 203.546875 C 230.90625 205.148438 231.382812 206.738281 231.824219 208.339844 C 232.644531 211.351562 232.667969 214.367188 231.78125 217.378906 C 230.6875 221.140625 230.707031 224.878906 232.246094 228.765625 C 231.519531 228.628906 230.972656 228.523438 229.863281 228.3125 C 231.117188 230.875 232.191406 233.078125 233.332031 235.414062 C 232.53125 235.171875 231.773438 234.941406 231.011719 234.71875 C 233.722656 236.933594 235.53125 239.566406 235.921875 243.042969 C 236.007812 243.78125 236.113281 244.527344 236.113281 245.277344 C 236.101562 247.910156 235.53125 248.519531 232.773438 249.027344 C 232.414062 247.835938 232.046875 246.636719 231.675781 245.433594 C 231.53125 245.488281 231.382812 245.539062 231.222656 245.59375 C 230.886719 246.917969 230.9375 248.953125 230.105469 249.417969 C 228.714844 250.195312 226.757812 249.984375 225.132812 250.175781 C 224.640625 248.519531 224.226562 247.128906 223.808594 245.75 C 223.617188 245.78125 223.417969 245.804688 223.226562 245.835938 C 223.152344 247.203125 223.089844 248.5625 223.007812 250.132812 C 220.878906 250.132812 218.824219 250.132812 216.949219 250.132812 C 216.472656 248.132812 216.042969 246.257812 215.601562 244.378906 C 215.378906 244.402344 215.15625 244.433594 214.9375 244.453125 C 214.726562 246.234375 214.503906 248.027344 214.230469 250.300781 C 211.3125 249.574219 208.582031 249.058594 205.980469 248.164062 C 205.308594 247.929688 204.683594 246.519531 204.644531 245.625 C 204.484375 242.074219 206.246094 239.324219 208.71875 236.941406 C 209.542969 236.152344 210.195312 235.203125 210.660156 234.078125 C 210.4375 234.140625 210.207031 234.203125 210.140625 234.214844 C 210.710938 230.757812 211.289062 227.1875 211.878906 223.617188 C 211.636719 223.550781 211.394531 223.476562 211.152344 223.414062 C 210.828125 224.078125 210.511719 224.742188 210.207031 225.363281 C 210.207031 216.367188 210.207031 207.359375 210.207031 198.066406 C 209.269531 199.164062 208.445312 200.132812 207.625 201.101562 C 207.464844 201.082031 207.308594 201.058594 207.160156 201.039062 C 207.488281 198.4375 207.8125 195.832031 208.140625 193.222656 C 205.433594 196.246094 204.683594 199.785156 205.234375 203.597656 C 205.421875 204.882812 206.359375 205.273438 207.5625 204.492188 C 207.835938 212.132812 208.953125 219.582031 207.550781 227.050781 C 207.402344 227.828125 208.078125 228.757812 208.371094 229.621094 C 208.4375 229.789062 208.605469 229.980469 208.5625 230.117188 C 207.742188 232.550781 206.992188 235.023438 206.011719 237.394531 C 205.582031 238.460938 204.464844 239.25 204.054688 240.324219 C 203.484375 241.808594 202.597656 242.253906 201.101562 242.199219 C 196.878906 242.03125 192.652344 241.980469 188.503906 241.875 C 187.933594 238.480469 187.417969 235.425781 186.890625 232.253906 C 188.714844 232.589844 188.753906 231.296875 188.429688 230.105469 C 187.785156 227.714844 186.871094 225.386719 186.207031 222.992188 C 185.796875 221.53125 185.46875 219.992188 185.40625 218.472656 C 185.277344 215.617188 185.375 212.742188 185.375 209.71875 C 185.847656 209.835938 186.320312 209.949219 187.082031 210.128906 C 187.796875 205.390625 185.195312 201.882812 183.351562 198.140625 C 183.191406 198.183594 183.046875 198.214844 182.886719 198.257812 C 183.53125 200.742188 184.171875 203.238281 184.816406 205.726562 C 184.65625 205.84375 184.511719 205.949219 184.351562 206.0625 C 183.570312 205.136719 182.804688 204.210938 182.023438 203.28125 C 181.929688 203.335938 181.824219 203.386719 181.726562 203.449219 C 182.066406 204.800781 182.570312 206.125 182.71875 207.507812 C 183.035156 210.289062 183.402344 213.101562 183.308594 215.882812 C 183.183594 219.589844 183.636719 223.089844 185.40625 226.375 C 185.636719 226.808594 185.773438 227.292969 185.933594 227.765625 C 185.984375 227.925781 185.941406 228.113281 185.941406 228.492188 C 185.214844 228.09375 184.605469 227.757812 183.984375 227.417969 C 183.804688 227.472656 183.636719 227.535156 183.457031 227.585938 C 184.277344 230.96875 185.109375 234.339844 185.996094 237.976562 C 185.308594 237.5 184.792969 237.132812 184.289062 236.773438 C 184.183594 236.828125 184.089844 236.867188 183.984375 236.921875 C 184.394531 237.753906 184.898438 238.554688 185.171875 239.429688 C 185.667969 241 186.332031 242.601562 186.386719 244.210938 C 186.511719 247.761719 185.605469 248.796875 182.171875 249.804688 C 181.519531 249.996094 180.84375 250.101562 180.0625 250.269531 C 179.851562 248.816406 179.652344 247.457031 179.453125 246.097656 C 179.242188 246.078125 179.019531 246.054688 178.808594 246.035156 C 178.566406 246.929688 178.113281 247.824219 178.125 248.710938 C 178.15625 250.429688 177.3125 250.859375 175.828125 250.753906 C 175.21875 250.710938 174.597656 250.746094 173.636719 250.746094 C 173.804688 249.039062 173.953125 247.414062 174.152344 245.382812 C 172.164062 246.773438 171.972656 248.660156 171.730469 250.5 C 169.769531 250.5 167.863281 250.5 165.789062 250.5 C 165.789062 249.015625 165.789062 247.6875 165.789062 246.140625 C 163.628906 246.984375 164.125 248.878906 163.648438 250.269531 C 159.992188 249.984375 158.917969 249.5625 159.992188 244.832031 C 160.582031 242.210938 162.363281 239.828125 163.785156 237.4375 C 164.578125 236.109375 165.746094 235.023438 166.703125 233.792969 C 167.09375 233.296875 167.359375 232.695312 167.675781 232.148438 C 167.558594 232.023438 167.453125 231.886719 167.335938 231.757812 C 166.597656 232.054688 165.851562 232.347656 164.964844 232.707031 C 165.535156 231.128906 166.0625 229.652344 166.589844 228.175781 C 166.460938 228.113281 166.335938 228.0625 166.210938 228 C 165.777344 228.746094 165.347656 229.503906 164.902344 230.253906 C 164.808594 230.230469 164.714844 230.199219 164.628906 230.179688 C 165.03125 228.113281 165.492188 226.058594 165.808594 223.984375 C 166.136719 221.773438 166.453125 219.527344 166.527344 217.292969 C 166.597656 215.1875 166.800781 212.984375 165.460938 210.667969 C 165.050781 211.636719 164.777344 212.28125 164.511719 212.910156 C 164.398438 212.910156 164.28125 212.910156 164.164062 212.910156 C 163.3125 205.410156 161.773438 197.898438 161.847656 190.40625 C 161.902344 185.203125 161.40625 180.292969 160.394531 175.257812 C 158.910156 167.882812 159.371094 160.601562 162.765625 153.703125 C 162.847656 153.535156 162.933594 153.363281 163.015625 153.195312 C 165.273438 148.949219 165.789062 148.824219 169.6875 151.417969 C 175.449219 155.25 181.769531 157.453125 188.640625 158.390625 C 192.347656 158.894531 196.203125 159.929688 199.640625 158.484375 C 207.898438 155.019531 217.097656 152.953125 222.804688 144.355469 C 233.550781 156.21875 233.234375 169.757812 230.203125 184.222656 C 232.960938 180.851562 234.5625 172.246094 234.617188 163.332031 C 234.878906 164.144531 235.21875 164.933594 235.40625 165.765625 C 237.1875 173.5625 239.566406 181.167969 243.117188 188.363281 C 243.78125 189.703125 244.5625 190.988281 245.363281 192.25 C 247.523438 195.65625 250.472656 197.960938 254.625 198.550781 C 254.601562 198.75 254.589844 198.953125 254.570312 199.152344 C 253.199219 199.277344 251.820312 199.414062 250.113281 199.574219 C 255.371094 202.722656 258.4375 207.273438 259.691406 213.363281 C 258.488281 212.5625 257.457031 211.878906 256.425781 211.195312 C 258.414062 215.417969 259.207031 219.824219 258.878906 224.417969 Z M 258.878906 224.417969 " fill-opacity="1" fill-rule="nonzero"/></g><g fill="#7a7067" fill-opacity="1"><g transform="translate(31.634871, 290.832959)"><g><path d="M 25.46875 -8.40625 C 25.46875 -12.46875 23.484375 -15.21875 16.53125 -17.90625 C 12.15625 -19.5 10.484375 -20.734375 10.484375 -22.734375 C 10.484375 -24.890625 11.984375 -26.703125 15.25 -26.703125 C 17.640625 -26.703125 20.390625 -25.640625 22.203125 -24.625 L 23.96875 -29.5 C 21.984375 -30.640625 18.703125 -31.609375 15.390625 -31.609375 C 8.75 -31.609375 4.953125 -27.28125 4.953125 -22.59375 C 4.953125 -18.875 7.03125 -16 13.09375 -13.796875 C 18.703125 -11.71875 19.859375 -10.484375 19.859375 -8.40625 C 19.859375 -6.40625 18.171875 -4.59375 14.5 -4.59375 C 11.71875 -4.59375 8.625 -5.65625 6.0625 -7.390625 L 4.15625 -2.4375 C 6.984375 -0.703125 10.65625 0.53125 14.328125 0.53125 C 21.265625 0.53125 25.46875 -2.875 25.46875 -8.40625 Z M 25.46875 -8.40625 "/></g></g></g><g fill="#7a7067" fill-opacity="1"><g transform="translate(55.248264, 290.832959)"><g><path d="M 11.0625 -6.1875 L 24.40625 -6.1875 L 27.15625 0 L 33.03125 0 L 18.4375 -31.34375 L 17.203125 -31.34375 L 2.609375 0 L 8.359375 0 Z M 17.734375 -21.265625 L 22.46875 -10.5625 L 13 -10.5625 Z M 17.734375 -21.265625 "/></g></g></g><g fill="#7a7067" fill-opacity="1"><g transform="translate(84.919767, 290.832959)"><g><path d="M 6.453125 0 L 11.9375 0 L 11.9375 -19.28125 L 31.4375 0.21875 L 32.90625 0.21875 L 32.90625 -31.078125 L 27.421875 -31.078125 L 27.421875 -11.234375 L 8.1875 -31.265625 L 6.453125 -31.265625 Z M 6.453125 0 "/></g></g></g><g fill="#7a7067" fill-opacity="1"><g transform="translate(118.305745, 290.832959)"><g><path d="M 4.8125 -31.078125 L 4.8125 -26.046875 L 20.65625 -26.046875 L 3.671875 -1.6875 L 3.671875 0 L 29.359375 0 L 29.359375 -5.046875 L 12.734375 -5.046875 L 29.765625 -29.40625 L 29.765625 -31.078125 Z M 4.8125 -31.078125 "/></g></g></g><g fill="#7a7067" fill-opacity="1"><g transform="translate(146.12002, 290.832959)"><g><path d="M 4.8125 -31.078125 L 4.8125 -26.046875 L 20.65625 -26.046875 L 3.671875 -1.6875 L 3.671875 0 L 29.359375 0 L 29.359375 -5.046875 L 12.734375 -5.046875 L 29.765625 -29.40625 L 29.765625 -31.078125 Z M 4.8125 -31.078125 "/></g></g></g><g fill="#7a7067" fill-opacity="1"><g transform="translate(173.934295, 290.832959)"><g><path d="M 24.546875 -31.078125 L 16.625 -17.328125 L 8.71875 -31.078125 L 2.390625 -31.078125 L 13.796875 -12.34375 L 13.796875 0 L 19.328125 0 L 19.328125 -12.296875 L 30.734375 -31.078125 Z M 24.546875 -31.078125 "/></g></g></g><g fill="#7a7067" fill-opacity="1"><g transform="translate(201.1295, 290.832959)"><g/></g></g><g fill="#7a7067" fill-opacity="1"><g transform="translate(213.73212, 290.832959)"><g><path d="M 14.90625 -9.015625 C 24.28125 -9.015625 28.390625 -13.53125 28.390625 -20.03125 C 28.390625 -26.53125 24.234375 -31.078125 15.96875 -31.078125 L 6.453125 -31.078125 L 6.453125 0 L 11.9375 0 L 11.9375 -9.015625 Z M 15.5625 -26.046875 C 20.734375 -26.046875 22.46875 -23.4375 22.46875 -20.03125 C 22.46875 -16.625 20.6875 -13.890625 15.5625 -13.890625 L 11.9375 -13.890625 L 11.9375 -26.046875 Z M 15.5625 -26.046875 "/></g></g></g><g fill="#7a7067" fill-opacity="1"><g transform="translate(239.86603, 290.832959)"><g><path d="M 11.0625 -6.1875 L 24.40625 -6.1875 L 27.15625 0 L 33.03125 0 L 18.4375 -31.34375 L 17.203125 -31.34375 L 2.609375 0 L 8.359375 0 Z M 17.734375 -21.265625 L 22.46875 -10.5625 L 13 -10.5625 Z M 17.734375 -21.265625 "/></g></g></g><g fill="#7a7067" fill-opacity="1"><g transform="translate(269.537552, 290.832959)"><g><path d="M 45.640625 -31.078125 L 39.671875 -31.078125 L 33.828125 -11.3125 L 25.375 -31.390625 L 23.5625 -31.390625 L 15.21875 -11.28125 L 9.328125 -31.078125 L 3.265625 -31.078125 L 13.046875 0.390625 L 14.90625 0.390625 L 24.40625 -20.609375 L 34.046875 0.390625 L 35.953125 0.390625 Z M 45.640625 -31.078125 "/></g></g></g><g fill="#7a7067" fill-opacity="1"><g transform="translate(312.475018, 290.832959)"><g><path d="M 25.46875 -8.40625 C 25.46875 -12.46875 23.484375 -15.21875 16.53125 -17.90625 C 12.15625 -19.5 10.484375 -20.734375 10.484375 -22.734375 C 10.484375 -24.890625 11.984375 -26.703125 15.25 -26.703125 C 17.640625 -26.703125 20.390625 -25.640625 22.203125 -24.625 L 23.96875 -29.5 C 21.984375 -30.640625 18.703125 -31.609375 15.390625 -31.609375 C 8.75 -31.609375 4.953125 -27.28125 4.953125 -22.59375 C 4.953125 -18.875 7.03125 -16 13.09375 -13.796875 C 18.703125 -11.71875 19.859375 -10.484375 19.859375 -8.40625 C 19.859375 -6.40625 18.171875 -4.59375 14.5 -4.59375 C 11.71875 -4.59375 8.625 -5.65625 6.0625 -7.390625 L 4.15625 -2.4375 C 6.984375 -0.703125 10.65625 0.53125 14.328125 0.53125 C 21.265625 0.53125 25.46875 -2.875 25.46875 -8.40625 Z M 25.46875 -8.40625 "/></g></g></g><g fill="#c0aa65" fill-opacity="1"><g transform="translate(105.322433, 327.793239)"><g><path d="M 11.640625 -9.5 L 11.640625 -6.640625 L 16.703125 -6.640625 L 16.703125 -3.421875 C 15.71875 -3.0625 14.25 -2.703125 12.578125 -2.703125 C 8.8125 -2.703125 6.03125 -5.390625 6.03125 -9.015625 C 6.03125 -12.734375 8.625 -15.40625 12.890625 -15.40625 C 15.28125 -15.40625 17.625 -14.21875 17.625 -14.21875 L 18.734375 -16.953125 C 18.734375 -16.953125 16.390625 -18.421875 12.34375 -18.421875 C 6.984375 -18.421875 2.578125 -14.296875 2.578125 -9.0625 C 2.578125 -3.703125 6.640625 0.3125 12.78125 0.3125 C 17.078125 0.3125 19.78125 -1.75 19.78125 -1.75 L 19.78125 -9.5 Z M 11.640625 -9.5 "/></g></g></g><g fill="#c0aa65" fill-opacity="1"><g transform="translate(126.571045, 327.793239)"><g><path d="M 3.765625 0 L 6.953125 0 L 6.953125 -5.25 L 8.9375 -5.25 C 9.5 -5.25 10.046875 -5.28125 10.5625 -5.328125 L 14.40625 0 L 18.140625 0 L 13.5 -6.125 C 15.765625 -7.1875 16.796875 -9.171875 16.796875 -11.671875 C 16.796875 -15.453125 14.375 -18.109375 9.5625 -18.109375 L 3.765625 -18.109375 Z M 9.328125 -15.171875 C 12.34375 -15.171875 13.34375 -13.65625 13.34375 -11.671875 C 13.34375 -9.6875 12.3125 -8.09375 9.328125 -8.09375 L 6.953125 -8.09375 L 6.953125 -15.171875 Z M 9.328125 -15.171875 "/></g></g></g><g fill="#c0aa65" fill-opacity="1"><g transform="translate(145.321275, 327.793239)"><g><path d="M 2.578125 -9.0625 C 2.578125 -3.703125 6.703125 0.28125 12.234375 0.28125 C 17.78125 0.28125 21.921875 -3.734375 21.921875 -9.0625 C 21.921875 -14.484375 17.859375 -18.421875 12.234375 -18.421875 C 6.796875 -18.421875 2.578125 -14.296875 2.578125 -9.0625 Z M 6.03125 -9.015625 C 6.03125 -12.734375 8.6875 -15.53125 12.265625 -15.53125 C 15.890625 -15.53125 18.5 -12.734375 18.5 -9.015625 C 18.5 -5.328125 15.765625 -2.53125 12.265625 -2.53125 C 8.765625 -2.53125 6.03125 -5.390625 6.03125 -9.015625 Z M 6.03125 -9.015625 "/></g></g></g><g fill="#c0aa65" fill-opacity="1"><g transform="translate(168.501621, 327.793239)"><g><path d="M 2.578125 -9.0625 C 2.578125 -3.703125 6.703125 0.28125 12.234375 0.28125 C 17.78125 0.28125 21.921875 -3.734375 21.921875 -9.0625 C 21.921875 -14.484375 17.859375 -18.421875 12.234375 -18.421875 C 6.796875 -18.421875 2.578125 -14.296875 2.578125 -9.0625 Z M 6.03125 -9.015625 C 6.03125 -12.734375 8.6875 -15.53125 12.265625 -15.53125 C 15.890625 -15.53125 18.5 -12.734375 18.5 -9.015625 C 18.5 -5.328125 15.765625 -2.53125 12.265625 -2.53125 C 8.765625 -2.53125 6.03125 -5.390625 6.03125 -9.015625 Z M 6.03125 -9.015625 "/></g></g></g><g fill="#c0aa65" fill-opacity="1"><g transform="translate(191.681962, 327.793239)"><g><path d="M 21.71875 -18.1875 L 20.296875 -18.1875 L 12.953125 -5 L 5.4375 -18.1875 L 4.015625 -18.1875 L 3.5 0 L 6.625 0 L 6.671875 -10.234375 L 12.3125 0.15625 L 13.421875 0.15625 L 19.015625 -10.40625 L 19.09375 0 L 22.234375 0 Z M 21.71875 -18.1875 "/></g></g></g><g fill="#c0aa65" fill-opacity="1"><g transform="translate(216.098618, 327.793239)"><g><path d="M 3.765625 0 L 6.953125 0 L 6.953125 -18.109375 L 3.765625 -18.109375 Z M 3.765625 0 "/></g></g></g><g fill="#c0aa65" fill-opacity="1"><g transform="translate(225.499259, 327.793239)"><g><path d="M 3.765625 0 L 6.953125 0 L 6.953125 -11.234375 L 18.3125 0.125 L 19.171875 0.125 L 19.171875 -18.109375 L 15.96875 -18.109375 L 15.96875 -6.546875 L 4.765625 -18.21875 L 3.765625 -18.21875 Z M 3.765625 0 "/></g></g></g><g fill="#c0aa65" fill-opacity="1"><g transform="translate(247.108463, 327.793239)"><g><path d="M 11.640625 -9.5 L 11.640625 -6.640625 L 16.703125 -6.640625 L 16.703125 -3.421875 C 15.71875 -3.0625 14.25 -2.703125 12.578125 -2.703125 C 8.8125 -2.703125 6.03125 -5.390625 6.03125 -9.015625 C 6.03125 -12.734375 8.625 -15.40625 12.890625 -15.40625 C 15.28125 -15.40625 17.625 -14.21875 17.625 -14.21875 L 18.734375 -16.953125 C 18.734375 -16.953125 16.390625 -18.421875 12.34375 -18.421875 C 6.984375 -18.421875 2.578125 -14.296875 2.578125 -9.0625 C 2.578125 -3.703125 6.640625 0.3125 12.78125 0.3125 C 17.078125 0.3125 19.78125 -1.75 19.78125 -1.75 L 19.78125 -9.5 Z M 11.640625 -9.5 "/></g></g></g></svg>