<svg xmlns="http://www.w3.org/2000/svg" xmlns:xlink="http://www.w3.org/1999/xlink" width="250" zoomAndPan="magnify" viewBox="0 0 187.5 187.499992" height="250" preserveAspectRatio="xMidYMid meet" version="1.0"><defs><clipPath id="4d07754732"><path d="M 20.328125 64 L 35 64 L 35 80 L 20.328125 80 Z M 20.328125 64 " clip-rule="nonzero"/></clipPath><clipPath id="21804545d4"><path d="M 20.328125 47 L 35 47 L 35 63 L 20.328125 63 Z M 20.328125 47 " clip-rule="nonzero"/></clipPath><clipPath id="33804f7ff4"><path d="M 20.328125 83 L 125 83 L 125 168.625 L 20.328125 168.625 Z M 20.328125 83 " clip-rule="nonzero"/></clipPath></defs><path fill="#ffffff" d="M 0 0 L 187 0 L 187 187 L 0 187 Z M 0 0 " fill-opacity="1" fill-rule="nonzero"/><path fill="#fba290" d="M 0 0 L 187 0 L 187 187 L 0 187 Z M 0 0 " fill-opacity="1" fill-rule="nonzero"/><path fill="#d7e057" d="M 41.84375 54.855469 C 41.84375 54.855469 44.027344 63.089844 50.398438 63.492188 C 50.398438 63.492188 41.886719 66.402344 41.71875 72.691406 C 41.71875 72.691406 40.078125 63.867188 33.363281 63.527344 C 33.363281 63.527344 41.1875 62.367188 41.84375 54.855469 Z M 41.84375 54.855469 " fill-opacity="1" fill-rule="nonzero"/><path fill="#3a312a" d="M 41.71875 73.664062 C 41.253906 73.664062 40.851562 73.332031 40.761719 72.871094 C 40.75 72.789062 39.171875 64.796875 33.3125 64.5 C 32.8125 64.472656 32.414062 64.074219 32.390625 63.574219 C 32.367188 63.074219 32.726562 62.636719 33.21875 62.5625 C 33.507812 62.519531 40.292969 61.40625 40.875 54.769531 C 40.914062 54.296875 41.289062 53.925781 41.761719 53.882812 C 42.230469 53.84375 42.664062 54.144531 42.785156 54.601562 C 42.804688 54.679688 44.875 62.164062 50.457031 62.519531 C 50.921875 62.546875 51.296875 62.898438 51.359375 63.359375 C 51.421875 63.820312 51.152344 64.261719 50.710938 64.414062 C 50.632812 64.441406 42.835938 67.1875 42.691406 72.714844 C 42.679688 73.214844 42.292969 73.621094 41.796875 73.660156 C 41.773438 73.664062 41.746094 73.664062 41.71875 73.664062 Z M 36.726562 63.425781 C 39.238281 64.714844 40.757812 67.171875 41.632812 69.210938 C 42.957031 66.601562 45.503906 64.8125 47.457031 63.753906 C 44.777344 62.546875 43.066406 60.066406 42.070312 58.066406 C 40.894531 60.898438 38.632812 62.519531 36.726562 63.425781 Z M 36.726562 63.425781 " fill-opacity="1" fill-rule="nonzero"/><path fill="#d7e057" d="M 27.722656 65.839844 C 27.722656 65.839844 29.269531 71.664062 33.773438 71.949219 C 33.773438 71.949219 27.753906 74.007812 27.636719 78.457031 C 27.636719 78.457031 26.472656 72.214844 21.722656 71.972656 C 21.722656 71.972656 27.257812 71.152344 27.722656 65.839844 Z M 27.722656 65.839844 " fill-opacity="1" fill-rule="nonzero"/><g clip-path="url(#4d07754732)"><path fill="#3a312a" d="M 27.636719 79.429688 C 27.171875 79.429688 26.765625 79.101562 26.679688 78.636719 C 26.667969 78.582031 25.59375 73.144531 21.675781 72.949219 C 21.175781 72.921875 20.777344 72.523438 20.753906 72.019531 C 20.726562 71.519531 21.085938 71.082031 21.582031 71.011719 C 21.773438 70.980469 26.363281 70.21875 26.753906 65.753906 C 26.796875 65.285156 27.167969 64.910156 27.640625 64.871094 C 28.113281 64.828125 28.542969 65.132812 28.664062 65.589844 C 28.679688 65.640625 30.09375 70.738281 33.835938 70.976562 C 34.296875 71.007812 34.675781 71.359375 34.738281 71.820312 C 34.800781 72.28125 34.527344 72.722656 34.085938 72.871094 C 34.035156 72.890625 28.707031 74.773438 28.609375 78.480469 C 28.59375 78.980469 28.207031 79.386719 27.710938 79.429688 C 27.6875 79.429688 27.660156 79.429688 27.636719 79.429688 Z M 24.726562 71.929688 C 26.089844 72.800781 27.003906 74.144531 27.597656 75.371094 C 28.496094 73.921875 29.890625 72.863281 31.09375 72.152344 C 29.609375 71.320312 28.578125 69.964844 27.898438 68.746094 C 27.128906 70.230469 25.929688 71.257812 24.726562 71.929688 Z M 24.726562 71.929688 " fill-opacity="1" fill-rule="nonzero"/></g><path fill="#d7e057" d="M 27.785156 48.519531 C 27.785156 48.519531 29.328125 54.339844 33.832031 54.625 C 33.832031 54.625 27.8125 56.6875 27.695312 61.132812 C 27.695312 61.132812 26.53125 54.890625 21.785156 54.652344 C 21.785156 54.652344 27.320312 53.832031 27.785156 48.519531 Z M 27.785156 48.519531 " fill-opacity="1" fill-rule="nonzero"/><g clip-path="url(#21804545d4)"><path fill="#3a312a" d="M 27.695312 62.109375 C 27.230469 62.109375 26.824219 61.777344 26.738281 61.3125 C 26.726562 61.257812 25.652344 55.824219 21.734375 55.625 C 21.234375 55.597656 20.835938 55.199219 20.8125 54.699219 C 20.789062 54.199219 21.148438 53.761719 21.640625 53.6875 C 21.832031 53.65625 26.421875 52.894531 26.8125 48.433594 C 26.855469 47.960938 27.230469 47.585938 27.699219 47.546875 C 28.175781 47.511719 28.601562 47.808594 28.722656 48.265625 C 28.75 48.351562 30.164062 53.417969 33.894531 53.652344 C 34.355469 53.683594 34.734375 54.035156 34.796875 54.496094 C 34.859375 54.957031 34.585938 55.398438 34.148438 55.546875 C 34.09375 55.566406 28.765625 57.449219 28.667969 61.160156 C 28.65625 61.65625 28.269531 62.066406 27.769531 62.105469 C 27.746094 62.109375 27.71875 62.109375 27.695312 62.109375 Z M 24.785156 54.605469 C 26.148438 55.476562 27.0625 56.820312 27.660156 58.046875 C 28.554688 56.601562 29.949219 55.539062 31.152344 54.828125 C 29.667969 54 28.636719 52.644531 27.957031 51.421875 C 27.1875 52.90625 25.992188 53.933594 24.785156 54.605469 Z M 24.785156 54.605469 " fill-opacity="1" fill-rule="nonzero"/></g><path fill="#87796f" d="M 59.289062 83.984375 C 60.109375 91.585938 59.566406 97.878906 58.070312 98.039062 C 56.574219 98.203125 54.695312 92.171875 53.875 84.570312 C 53.050781 76.972656 53.59375 70.679688 55.089844 70.515625 C 56.585938 70.355469 58.464844 76.382812 59.289062 83.984375 Z M 59.289062 83.984375 " fill-opacity="1" fill-rule="nonzero"/><path fill="#3a312a" d="M 58.019531 99.015625 C 54.632812 99.019531 53.167969 87.097656 52.90625 84.675781 C 52.640625 82.21875 51.488281 69.925781 54.984375 69.546875 C 56.304688 69.40625 57.355469 70.789062 58.371094 74.046875 C 59.183594 76.648438 59.851562 80.140625 60.253906 83.878906 C 60.523438 86.335938 61.675781 98.628906 58.175781 99.007812 C 58.125 99.015625 58.070312 99.015625 58.019531 99.015625 Z M 55.210938 71.648438 C 54.648438 72.769531 54.050781 77.167969 54.839844 84.464844 C 55.632812 91.765625 57.15625 95.933594 57.949219 96.90625 C 58.511719 95.785156 59.109375 91.390625 58.320312 84.089844 C 57.527344 76.789062 56.003906 72.621094 55.210938 71.648438 Z M 55.210938 71.648438 " fill-opacity="1" fill-rule="nonzero"/><path fill="#87796f" d="M 33.917969 102.65625 C 36.777344 109.746094 37.964844 115.949219 36.570312 116.511719 C 35.175781 117.074219 31.726562 111.785156 28.871094 104.695312 C 26.011719 97.609375 24.824219 91.402344 26.21875 90.839844 C 27.613281 90.277344 31.058594 95.566406 33.917969 102.65625 Z M 33.917969 102.65625 " fill-opacity="1" fill-rule="nonzero"/><path fill="#3a312a" d="M 36.332031 117.535156 C 35.246094 117.535156 34.019531 116.410156 32.453125 114.007812 C 30.964844 111.722656 29.371094 108.546875 27.964844 105.0625 C 27.039062 102.765625 22.589844 91.253906 25.851562 89.9375 C 29.109375 88.621094 33.894531 99.996094 34.820312 102.289062 C 36.226562 105.773438 37.28125 109.167969 37.796875 111.847656 C 38.4375 115.195312 38.171875 116.914062 36.933594 117.414062 C 36.738281 117.496094 36.539062 117.535156 36.332031 117.535156 Z M 26.644531 91.898438 C 26.40625 93.128906 27.027344 97.523438 29.773438 104.332031 C 32.515625 111.140625 35.117188 114.734375 36.144531 115.453125 C 36.382812 114.222656 35.761719 109.828125 33.015625 103.019531 C 30.269531 96.210938 27.671875 92.617188 26.644531 91.898438 Z M 26.644531 91.898438 " fill-opacity="1" fill-rule="nonzero"/><path fill="#87796f" d="M 90.273438 70.511719 C 90.449219 70.53125 90.617188 70.636719 90.773438 70.832031 C 90.925781 71.027344 91.066406 71.304688 91.195312 71.671875 C 91.320312 72.035156 91.429688 72.472656 91.523438 72.992188 C 91.617188 73.511719 91.695312 74.097656 91.75 74.75 C 91.804688 75.402344 91.84375 76.109375 91.859375 76.871094 C 91.878906 77.632812 91.875 78.433594 91.851562 79.277344 C 91.832031 80.121094 91.789062 80.984375 91.726562 81.875 C 91.667969 82.765625 91.585938 83.664062 91.488281 84.566406 C 91.390625 85.46875 91.277344 86.363281 91.144531 87.246094 C 91.015625 88.128906 90.871094 88.984375 90.710938 89.808594 C 90.554688 90.636719 90.386719 91.421875 90.203125 92.164062 C 90.023438 92.902344 89.835938 93.585938 89.640625 94.210938 C 89.449219 94.835938 89.25 95.390625 89.046875 95.878906 C 88.84375 96.363281 88.644531 96.769531 88.441406 97.097656 C 88.238281 97.425781 88.042969 97.667969 87.847656 97.828125 C 87.65625 97.984375 87.46875 98.054688 87.292969 98.035156 C 87.113281 98.015625 86.945312 97.90625 86.792969 97.710938 C 86.636719 97.515625 86.496094 97.238281 86.367188 96.875 C 86.242188 96.511719 86.132812 96.070312 86.039062 95.550781 C 85.945312 95.035156 85.871094 94.449219 85.8125 93.796875 C 85.757812 93.144531 85.71875 92.433594 85.703125 91.671875 C 85.683594 90.910156 85.6875 90.109375 85.710938 89.265625 C 85.734375 88.425781 85.773438 87.558594 85.835938 86.667969 C 85.898438 85.777344 85.976562 84.882812 86.074219 83.976562 C 86.171875 83.074219 86.285156 82.179688 86.417969 81.300781 C 86.546875 80.417969 86.691406 79.5625 86.851562 78.734375 C 87.007812 77.90625 87.179688 77.121094 87.359375 76.382812 C 87.539062 75.640625 87.726562 74.957031 87.921875 74.332031 C 88.117188 73.707031 88.316406 73.152344 88.515625 72.667969 C 88.71875 72.179688 88.921875 71.773438 89.121094 71.445312 C 89.324219 71.117188 89.523438 70.875 89.714844 70.71875 C 89.910156 70.558594 90.09375 70.492188 90.273438 70.511719 Z M 90.273438 70.511719 " fill-opacity="1" fill-rule="nonzero"/><path fill="#3a312a" d="M 87.347656 99.015625 C 87.296875 99.015625 87.242188 99.015625 87.1875 99.007812 C 83.691406 98.628906 84.84375 86.339844 85.109375 83.878906 C 85.515625 80.140625 86.183594 76.648438 86.996094 74.046875 C 88.011719 70.792969 89.054688 69.410156 90.378906 69.546875 C 93.878906 69.925781 92.726562 82.21875 92.460938 84.675781 C 92.195312 87.097656 90.730469 99.015625 87.347656 99.015625 Z M 87.574219 97.136719 L 87.582031 97.136719 Z M 90.152344 71.648438 C 89.359375 72.621094 87.835938 76.789062 87.046875 84.089844 C 86.253906 91.390625 86.851562 95.785156 87.417969 96.90625 C 88.207031 95.933594 89.734375 91.765625 90.523438 84.464844 C 91.3125 77.167969 90.71875 72.769531 90.152344 71.648438 Z M 86.078125 83.984375 L 86.082031 83.984375 Z M 86.078125 83.984375 " fill-opacity="1" fill-rule="nonzero"/><path fill="#87796f" d="M 111.445312 102.65625 C 108.585938 109.746094 107.402344 115.949219 108.796875 116.511719 C 110.191406 117.074219 113.636719 111.785156 116.496094 104.695312 C 119.355469 97.609375 120.542969 91.402344 119.148438 90.839844 C 117.75 90.277344 114.304688 95.566406 111.445312 102.65625 Z M 111.445312 102.65625 " fill-opacity="1" fill-rule="nonzero"/><path fill="#3a312a" d="M 109.03125 117.535156 C 108.828125 117.535156 108.628906 117.496094 108.429688 117.414062 C 107.195312 116.914062 106.929688 115.199219 107.570312 111.847656 C 108.082031 109.171875 109.136719 105.777344 110.542969 102.289062 C 111.46875 99.996094 116.242188 88.617188 119.511719 89.9375 C 122.773438 91.257812 118.324219 102.769531 117.398438 105.0625 C 115.992188 108.546875 114.398438 111.726562 112.910156 114.007812 C 111.34375 116.410156 110.121094 117.535156 109.03125 117.535156 Z M 109.3125 115.71875 L 109.320312 115.71875 Z M 112.347656 103.019531 C 109.605469 109.828125 108.980469 114.222656 109.222656 115.453125 C 110.246094 114.734375 112.847656 111.140625 115.59375 104.332031 C 118.339844 97.523438 118.960938 93.128906 118.71875 91.898438 C 117.695312 92.617188 115.09375 96.210938 112.347656 103.019531 Z M 112.347656 103.019531 " fill-opacity="1" fill-rule="nonzero"/><path fill="#fae6ca" d="M 122.03125 113.339844 C 120.078125 108.078125 116.078125 104.148438 111.058594 102.558594 C 108.703125 101.816406 106.238281 101.625 103.808594 101.957031 C 103.484375 98.488281 102.394531 95.179688 100.605469 92.347656 C 97.609375 87.605469 92.882812 84.589844 87.644531 84.074219 C 82.40625 83.558594 77.183594 85.59375 73.320312 89.664062 C 73.046875 89.949219 72.785156 90.25 72.53125 90.554688 C 72.273438 90.25 72.011719 89.949219 71.738281 89.664062 C 67.878906 85.59375 62.65625 83.558594 57.417969 84.074219 C 52.175781 84.589844 47.453125 87.605469 44.457031 92.347656 C 42.664062 95.183594 41.574219 98.496094 41.253906 101.96875 C 38.859375 101.628906 36.398438 101.800781 34.003906 102.558594 C 28.984375 104.148438 24.984375 108.078125 23.03125 113.339844 C 21.363281 117.828125 21.289062 122.972656 22.824219 127.832031 C 24.355469 132.6875 27.371094 136.859375 31.3125 139.574219 C 33.628906 141.171875 36.175781 142.191406 38.769531 142.617188 C 38.6875 143.859375 38.695312 145.121094 38.8125 146.386719 C 39.847656 157.421875 48.949219 166.425781 59.992188 167.328125 C 60.621094 167.378906 61.253906 167.40625 61.882812 167.40625 C 64.9375 167.40625 67.980469 166.804688 70.78125 165.644531 C 71.898438 165.179688 73.082031 165.179688 74.199219 165.644531 C 77.582031 167.046875 81.3125 167.628906 84.992188 167.328125 C 96.03125 166.425781 105.132812 157.421875 106.167969 146.390625 C 106.285156 145.128906 106.296875 143.871094 106.210938 142.632812 C 108.835938 142.214844 111.410156 141.1875 113.75 139.574219 C 117.691406 136.859375 120.703125 132.6875 122.238281 127.832031 C 123.769531 122.972656 123.695312 117.828125 122.03125 113.339844 Z M 122.03125 113.339844 " fill-opacity="1" fill-rule="nonzero"/><g clip-path="url(#33804f7ff4)"><path fill="#3a312a" d="M 83.097656 168.378906 C 79.917969 168.378906 76.746094 167.757812 73.828125 166.542969 C 72.953125 166.179688 72.03125 166.179688 71.152344 166.542969 C 67.660156 167.996094 63.6875 168.609375 59.910156 168.300781 C 48.40625 167.359375 38.921875 157.976562 37.84375 146.476562 C 37.75 145.472656 37.722656 144.445312 37.753906 143.417969 C 35.28125 142.894531 32.929688 141.871094 30.757812 140.375 C 26.640625 137.539062 23.492188 133.1875 21.894531 128.125 C 20.296875 123.0625 20.375 117.6875 22.117188 113 C 24.175781 107.453125 28.402344 103.308594 33.710938 101.628906 C 35.878906 100.945312 38.121094 100.695312 40.394531 100.890625 C 40.835938 97.609375 41.949219 94.496094 43.632812 91.828125 C 46.789062 86.828125 51.78125 83.648438 57.320312 83.101562 C 62.863281 82.558594 68.375 84.703125 72.445312 88.992188 C 72.472656 89.023438 72.5 89.050781 72.527344 89.082031 C 72.558594 89.050781 72.585938 89.023438 72.613281 88.992188 C 76.683594 84.703125 82.195312 82.554688 87.738281 83.101562 C 93.277344 83.648438 98.269531 86.828125 101.425781 91.828125 C 103.109375 94.492188 104.21875 97.605469 104.664062 100.882812 C 106.949219 100.699219 109.191406 100.949219 111.347656 101.628906 C 116.660156 103.308594 120.882812 107.453125 122.941406 113 C 124.683594 117.691406 124.761719 123.0625 123.164062 128.125 C 121.566406 133.191406 118.417969 137.539062 114.300781 140.378906 C 112.101562 141.890625 109.726562 142.917969 107.226562 143.4375 C 107.261719 144.460938 107.230469 145.484375 107.136719 146.484375 C 106.058594 157.980469 96.574219 167.359375 85.070312 168.300781 C 84.414062 168.355469 83.757812 168.378906 83.097656 168.378906 Z M 72.492188 164.320312 C 73.191406 164.320312 73.894531 164.460938 74.574219 164.742188 C 77.8125 166.085938 81.386719 166.644531 84.914062 166.355469 C 95.488281 165.492188 104.207031 156.867188 105.199219 146.300781 C 105.308594 145.121094 105.324219 143.910156 105.242188 142.699219 C 105.207031 142.195312 105.5625 141.746094 106.058594 141.667969 C 108.585938 141.269531 110.988281 140.292969 113.199219 138.769531 C 116.960938 136.179688 119.839844 132.1875 121.308594 127.539062 C 122.777344 122.886719 122.710938 117.964844 121.117188 113.675781 C 119.269531 108.699219 115.496094 104.988281 110.761719 103.488281 C 108.574219 102.796875 106.277344 102.605469 103.9375 102.921875 C 103.675781 102.960938 103.410156 102.886719 103.203125 102.722656 C 102.996094 102.554688 102.863281 102.3125 102.839844 102.046875 C 102.527344 98.714844 101.46875 95.542969 99.78125 92.871094 C 96.945312 88.382812 92.488281 85.527344 87.546875 85.042969 C 82.609375 84.554688 77.679688 86.484375 74.027344 90.335938 C 73.765625 90.609375 73.519531 90.894531 73.273438 91.183594 C 72.90625 91.621094 72.15625 91.621094 71.785156 91.183594 C 71.542969 90.894531 71.292969 90.609375 71.035156 90.335938 C 67.378906 86.488281 62.453125 84.5625 57.511719 85.042969 C 52.570312 85.53125 48.113281 88.382812 45.277344 92.871094 C 43.589844 95.542969 42.53125 98.722656 42.222656 102.058594 C 42.195312 102.324219 42.0625 102.570312 41.855469 102.734375 C 41.644531 102.898438 41.378906 102.972656 41.113281 102.9375 C 38.792969 102.605469 36.5 102.792969 34.296875 103.488281 C 29.5625 104.988281 25.789062 108.699219 23.941406 113.679688 C 22.351562 117.964844 22.285156 122.886719 23.75 127.539062 C 25.21875 132.191406 28.101562 136.179688 31.863281 138.769531 C 34.046875 140.273438 36.421875 141.246094 38.925781 141.65625 C 39.421875 141.734375 39.777344 142.183594 39.742188 142.683594 C 39.65625 143.898438 39.671875 145.113281 39.78125 146.296875 C 40.773438 156.867188 49.492188 165.492188 60.070312 166.359375 C 63.542969 166.640625 67.195312 166.078125 70.40625 164.742188 C 71.089844 164.460938 71.789062 164.320312 72.492188 164.320312 Z M 72.492188 164.320312 " fill-opacity="1" fill-rule="nonzero"/></g><path fill="#87796f" d="M 67.980469 103.855469 C 68.574219 109.917969 65.234375 115.203125 60.519531 115.667969 C 55.800781 116.132812 51.496094 111.597656 50.902344 105.539062 C 50.308594 99.476562 53.648438 94.191406 58.363281 93.726562 C 63.082031 93.261719 67.386719 97.796875 67.980469 103.855469 Z M 67.980469 103.855469 " fill-opacity="1" fill-rule="nonzero"/><path fill="#3a312a" d="M 59.84375 116.675781 C 57.527344 116.675781 55.285156 115.644531 53.460938 113.722656 C 51.496094 111.648438 50.242188 108.777344 49.933594 105.632812 C 49.625 102.488281 50.296875 99.425781 51.820312 97.011719 C 53.394531 94.519531 55.683594 93.007812 58.269531 92.753906 C 60.851562 92.5 63.394531 93.535156 65.421875 95.671875 C 67.386719 97.742188 68.640625 100.617188 68.949219 103.761719 C 69.257812 106.90625 68.585938 109.96875 67.0625 112.382812 C 65.488281 114.871094 63.199219 116.382812 60.613281 116.636719 C 60.355469 116.664062 60.101562 116.675781 59.84375 116.675781 Z M 59.027344 94.667969 C 58.839844 94.667969 58.648438 94.675781 58.460938 94.695312 C 56.484375 94.890625 54.710938 96.082031 53.464844 98.054688 C 52.171875 100.101562 51.605469 102.726562 51.871094 105.441406 C 52.136719 108.15625 53.203125 110.621094 54.871094 112.378906 C 56.476562 114.070312 58.449219 114.894531 60.421875 114.699219 C 62.398438 114.503906 64.171875 113.3125 65.417969 111.339844 C 66.710938 109.289062 67.277344 106.667969 67.011719 103.953125 C 66.746094 101.234375 65.679688 98.773438 64.011719 97.015625 C 62.5625 95.488281 60.8125 94.667969 59.027344 94.667969 Z M 59.027344 94.667969 " fill-opacity="1" fill-rule="nonzero"/><path fill="#87796f" d="M 48.421875 119.730469 C 50.253906 125.535156 48.078125 131.402344 43.558594 132.832031 C 39.039062 134.261719 33.890625 130.714844 32.058594 124.910156 C 30.226562 119.101562 32.40625 113.238281 36.921875 111.808594 C 41.441406 110.378906 46.589844 113.925781 48.421875 119.730469 Z M 48.421875 119.730469 " fill-opacity="1" fill-rule="nonzero"/><path fill="#3a312a" d="M 41.519531 134.121094 C 37.171875 134.121094 32.820312 130.546875 31.132812 125.203125 C 30.179688 122.1875 30.203125 119.054688 31.199219 116.378906 C 32.222656 113.613281 34.152344 111.660156 36.628906 110.878906 C 39.109375 110.09375 41.808594 110.582031 44.230469 112.253906 C 46.582031 113.871094 48.398438 116.421875 49.351562 119.4375 C 50.300781 122.449219 50.277344 125.585938 49.285156 128.261719 C 48.257812 131.023438 46.328125 132.976562 43.851562 133.761719 C 43.085938 134.003906 42.300781 134.121094 41.519531 134.121094 Z M 38.988281 112.464844 C 38.382812 112.464844 37.789062 112.554688 37.214844 112.738281 C 35.324219 113.335938 33.832031 114.871094 33.023438 117.054688 C 32.179688 119.328125 32.167969 122.011719 32.988281 124.613281 C 34.65625 129.898438 39.265625 133.164062 43.265625 131.902344 C 45.15625 131.300781 46.648438 129.769531 47.457031 127.582031 C 48.300781 125.308594 48.3125 122.625 47.492188 120.023438 C 46.671875 117.421875 45.121094 115.234375 43.128906 113.859375 C 41.792969 112.9375 40.367188 112.464844 38.988281 112.464844 Z M 38.988281 112.464844 " fill-opacity="1" fill-rule="nonzero"/><path fill="#87796f" d="M 77.082031 103.855469 C 76.484375 109.917969 79.824219 115.203125 84.542969 115.667969 C 89.257812 116.132812 93.5625 111.597656 94.15625 105.539062 C 94.75 99.476562 91.410156 94.191406 86.695312 93.726562 C 81.980469 93.261719 77.675781 97.796875 77.082031 103.855469 Z M 77.082031 103.855469 " fill-opacity="1" fill-rule="nonzero"/><path fill="#3a312a" d="M 85.214844 116.675781 C 84.960938 116.675781 84.703125 116.664062 84.445312 116.636719 C 79.203125 116.121094 75.464844 110.347656 76.109375 103.761719 C 76.757812 97.175781 81.542969 92.238281 86.789062 92.753906 C 89.375 93.007812 91.667969 94.519531 93.242188 97.011719 C 94.765625 99.425781 95.433594 102.488281 95.125 105.632812 C 94.816406 108.777344 93.566406 111.648438 91.601562 113.722656 C 89.773438 115.644531 87.53125 116.675781 85.214844 116.675781 Z M 78.050781 103.953125 C 77.507812 109.46875 80.464844 114.289062 84.636719 114.699219 C 86.613281 114.894531 88.585938 114.070312 90.191406 112.378906 C 91.855469 110.621094 92.921875 108.15625 93.1875 105.441406 C 93.457031 102.726562 92.890625 100.101562 91.597656 98.054688 C 90.351562 96.082031 88.578125 94.890625 86.601562 94.695312 C 82.421875 94.285156 78.589844 98.4375 78.050781 103.953125 Z M 78.050781 103.953125 " fill-opacity="1" fill-rule="nonzero"/><path fill="#87796f" d="M 96.636719 119.730469 C 94.804688 125.535156 96.984375 131.402344 101.5 132.832031 C 106.019531 134.261719 111.167969 130.714844 113 124.910156 C 114.832031 119.101562 112.65625 113.238281 108.136719 111.808594 C 103.617188 110.378906 98.472656 113.925781 96.636719 119.730469 Z M 96.636719 119.730469 " fill-opacity="1" fill-rule="nonzero"/><path fill="#3a312a" d="M 103.574219 134.125 C 102.773438 134.125 101.980469 134.003906 101.207031 133.761719 C 96.183594 132.171875 93.71875 125.746094 95.710938 119.4375 C 96.660156 116.421875 98.480469 113.871094 100.828125 112.253906 C 103.253906 110.582031 105.953125 110.09375 108.429688 110.878906 C 110.90625 111.664062 112.835938 113.617188 113.863281 116.378906 C 114.855469 119.054688 114.878906 122.1875 113.929688 125.203125 C 112.976562 128.214844 111.160156 130.769531 108.808594 132.386719 C 107.140625 133.535156 105.339844 134.125 103.574219 134.125 Z M 97.566406 120.023438 C 95.898438 125.308594 97.796875 130.636719 101.792969 131.902344 C 103.6875 132.5 105.785156 132.101562 107.707031 130.78125 C 109.699219 129.40625 111.25 127.214844 112.070312 124.613281 C 112.894531 122.011719 112.878906 119.328125 112.039062 117.058594 C 111.226562 114.871094 109.738281 113.335938 107.84375 112.738281 C 105.953125 112.136719 103.851562 112.535156 101.933594 113.859375 C 99.9375 115.234375 98.386719 117.421875 97.566406 120.023438 Z M 97.566406 120.023438 " fill-opacity="1" fill-rule="nonzero"/><path fill="#87796f" d="M 89.757812 132.414062 C 87.53125 131.144531 85.605469 129.398438 84.382812 127.140625 C 82.097656 122.917969 77.632812 120.046875 72.496094 120.046875 C 67.359375 120.046875 62.894531 122.914062 60.609375 127.136719 C 59.386719 129.394531 57.457031 131.140625 55.230469 132.414062 C 50.800781 134.941406 47.933594 139.902344 48.457031 145.480469 C 49.0625 151.921875 54.339844 157.132812 60.777344 157.660156 C 63.019531 157.84375 65.15625 157.480469 67.070312 156.683594 C 70.5625 155.234375 74.417969 155.234375 77.910156 156.683594 C 79.824219 157.480469 81.960938 157.84375 84.203125 157.660156 C 90.640625 157.132812 95.917969 151.921875 96.523438 145.484375 C 97.046875 139.90625 94.183594 134.945312 89.757812 132.414062 Z M 89.757812 132.414062 " fill-opacity="1" fill-rule="nonzero"/><path fill="#3a312a" d="M 61.929688 158.683594 C 61.523438 158.683594 61.113281 158.667969 60.699219 158.632812 C 53.8125 158.070312 48.132812 152.453125 47.488281 145.570312 C 46.957031 139.882812 49.804688 134.386719 54.75 131.566406 C 57.007812 130.277344 58.695312 128.628906 59.753906 126.671875 C 62.292969 121.984375 67.175781 119.074219 72.496094 119.074219 C 77.816406 119.074219 82.703125 121.988281 85.238281 126.679688 C 86.296875 128.632812 87.980469 130.277344 90.238281 131.570312 C 95.179688 134.390625 98.027344 139.886719 97.492188 145.574219 C 96.847656 152.457031 91.167969 158.070312 84.28125 158.632812 C 81.945312 158.824219 79.675781 158.472656 77.539062 157.585938 C 74.28125 156.234375 70.695312 156.234375 67.441406 157.585938 C 65.683594 158.316406 63.832031 158.683594 61.929688 158.683594 Z M 72.496094 121.023438 C 67.890625 121.023438 63.664062 123.542969 61.464844 127.601562 C 60.230469 129.882812 58.292969 131.789062 55.710938 133.261719 C 51.433594 135.703125 48.964844 140.460938 49.425781 145.390625 C 49.984375 151.34375 54.898438 156.203125 60.859375 156.691406 C 62.886719 156.855469 64.851562 156.550781 66.695312 155.785156 C 70.433594 154.230469 74.546875 154.230469 78.285156 155.785156 C 80.132812 156.550781 82.097656 156.855469 84.125 156.691406 C 90.082031 156.203125 94.996094 151.347656 95.554688 145.394531 C 96.015625 140.464844 93.550781 135.703125 89.273438 133.261719 C 86.695312 131.789062 84.761719 129.886719 83.527344 127.605469 C 81.332031 123.542969 77.105469 121.023438 72.496094 121.023438 Z M 72.496094 121.023438 " fill-opacity="1" fill-rule="nonzero"/><path fill="#ed6e7a" d="M 161.03125 56.109375 C 159.609375 55.828125 158.136719 56.019531 156.835938 56.660156 C 155.953125 57.09375 154.78125 57.539062 153.261719 57.914062 C 148.039062 59.210938 141.019531 59.164062 134 57.78125 C 126.976562 56.398438 120.460938 53.785156 116.117188 50.605469 C 114.855469 49.679688 113.9375 48.824219 113.285156 48.085938 C 112.320312 47 111.03125 46.265625 109.609375 45.984375 C 103.34375 44.75 99.136719 52.203125 103.398438 56.964844 C 104.683594 58.402344 106.289062 59.867188 108.285156 61.328125 C 114.222656 65.679688 122.449219 69.050781 131.4375 70.820312 C 140.429688 72.589844 149.316406 72.585938 156.460938 70.808594 C 158.859375 70.214844 160.898438 69.46875 162.628906 68.625 C 168.375 65.832031 167.296875 57.339844 161.03125 56.109375 Z M 161.03125 56.109375 " fill-opacity="1" fill-rule="nonzero"/><path fill="#3a312a" d="M 144.617188 73.117188 C 140.320312 73.117188 135.796875 72.671875 131.25 71.777344 C 122.125 69.980469 113.761719 66.546875 107.707031 62.113281 C 105.761719 60.6875 104.066406 59.175781 102.671875 57.617188 C 100.441406 55.125 100.066406 51.636719 101.71875 48.730469 C 103.359375 45.839844 106.53125 44.386719 109.796875 45.03125 C 111.421875 45.351562 112.917969 46.207031 114.011719 47.4375 C 114.707031 48.222656 115.609375 49.023438 116.691406 49.816406 C 120.925781 52.917969 127.300781 55.472656 134.1875 56.828125 C 141.070312 58.183594 147.941406 58.234375 153.027344 56.96875 C 154.332031 56.644531 155.46875 56.246094 156.40625 55.785156 C 157.886719 55.058594 159.597656 54.832031 161.21875 55.152344 C 164.484375 55.792969 166.871094 58.339844 167.300781 61.640625 C 167.726562 64.953125 166.0625 68.039062 163.054688 69.503906 C 161.175781 70.417969 159.035156 71.175781 156.695312 71.757812 C 153.039062 72.664062 148.945312 73.117188 144.617188 73.117188 Z M 108.222656 46.820312 C 105.902344 46.820312 104.246094 48.226562 103.410156 49.695312 C 102.429688 51.417969 102.105469 54.058594 104.121094 56.316406 C 105.425781 57.773438 107.019531 59.195312 108.859375 60.539062 C 114.6875 64.808594 122.773438 68.121094 131.625 69.863281 C 140.480469 71.605469 149.214844 71.605469 156.222656 69.863281 C 158.433594 69.316406 160.445312 68.601562 162.203125 67.746094 C 164.925781 66.425781 165.621094 63.855469 165.367188 61.890625 C 165.113281 59.9375 163.792969 57.644531 160.84375 57.0625 C 159.636719 56.824219 158.367188 56.992188 157.265625 57.535156 C 156.203125 58.058594 154.933594 58.503906 153.496094 58.859375 C 148.140625 60.191406 140.964844 60.148438 133.808594 58.738281 C 126.65625 57.328125 119.996094 54.652344 115.542969 51.390625 C 114.347656 50.511719 113.339844 49.617188 112.554688 48.730469 C 111.742188 47.816406 110.628906 47.179688 109.421875 46.941406 C 109.003906 46.859375 108.605469 46.820312 108.222656 46.820312 Z M 108.222656 46.820312 " fill-opacity="1" fill-rule="nonzero"/><path fill="#87796f" d="M 75.203125 38.96875 L 93.234375 45.53125 L 93.675781 44.324219 C 96.515625 36.492188 91.515625 27.484375 82.503906 24.207031 C 73.496094 20.925781 63.882812 24.613281 61.039062 32.445312 L 60.601562 33.652344 L 66.4375 35.777344 Z M 75.203125 38.96875 " fill-opacity="1" fill-rule="nonzero"/><path fill="#3a312a" d="M 93.234375 46.507812 C 93.125 46.507812 93.011719 46.488281 92.902344 46.449219 L 74.867188 39.882812 C 74.363281 39.699219 74.101562 39.140625 74.285156 38.632812 C 74.46875 38.128906 75.027344 37.867188 75.535156 38.050781 L 92.652344 44.28125 L 92.757812 43.988281 C 95.414062 36.675781 90.664062 28.210938 82.171875 25.121094 C 73.679688 22.03125 64.609375 25.464844 61.957031 32.777344 L 61.847656 33.070312 L 66.769531 34.859375 C 67.273438 35.042969 67.535156 35.605469 67.351562 36.109375 C 67.167969 36.617188 66.609375 36.875 66.105469 36.691406 L 60.269531 34.570312 C 59.765625 34.382812 59.503906 33.824219 59.6875 33.320312 L 60.125 32.109375 C 63.148438 23.789062 73.335938 19.832031 82.839844 23.289062 C 92.339844 26.746094 97.613281 36.332031 94.589844 44.65625 L 94.152344 45.863281 C 94.007812 46.261719 93.632812 46.507812 93.234375 46.507812 Z M 93.234375 46.507812 " fill-opacity="1" fill-rule="nonzero"/><path fill="#ed6e7a" d="M 161.03125 39.042969 C 159.609375 39.324219 158.136719 39.132812 156.835938 38.492188 C 155.953125 38.058594 154.78125 37.613281 153.261719 37.238281 C 148.039062 35.941406 141.019531 35.988281 134 37.371094 C 126.976562 38.753906 120.460938 41.367188 116.117188 44.546875 C 114.855469 45.472656 113.9375 46.328125 113.285156 47.066406 C 112.320312 48.152344 111.03125 48.886719 109.609375 49.167969 C 103.34375 50.398438 99.136719 42.949219 103.398438 38.1875 C 104.683594 36.75 106.289062 35.285156 108.285156 33.824219 C 114.222656 29.472656 122.449219 26.101562 131.4375 24.332031 C 140.429688 22.5625 149.316406 22.566406 156.460938 24.34375 C 158.859375 24.9375 160.898438 25.683594 162.628906 26.527344 C 168.375 29.320312 167.296875 37.8125 161.03125 39.042969 Z M 161.03125 39.042969 " fill-opacity="1" fill-rule="nonzero"/><path fill="#3a312a" d="M 108.269531 50.273438 C 105.574219 50.273438 103.101562 48.859375 101.71875 46.421875 C 100.066406 43.515625 100.441406 40.03125 102.671875 37.535156 C 104.066406 35.976562 105.761719 34.464844 107.707031 33.039062 C 113.761719 28.605469 122.121094 25.171875 131.25 23.375 C 140.378906 21.578125 149.414062 21.585938 156.695312 23.394531 C 159.035156 23.976562 161.175781 24.738281 163.054688 25.648438 C 166.0625 27.113281 167.726562 30.199219 167.300781 33.511719 C 166.871094 36.8125 164.484375 39.359375 161.21875 40 C 159.597656 40.320312 157.886719 40.097656 156.40625 39.367188 C 155.46875 38.90625 154.328125 38.507812 153.027344 38.183594 C 147.9375 36.917969 141.070312 36.972656 134.1875 38.328125 C 127.300781 39.679688 120.925781 42.238281 116.691406 45.335938 C 115.609375 46.128906 114.707031 46.929688 114.011719 47.714844 C 112.917969 48.949219 111.421875 49.804688 109.796875 50.125 C 109.285156 50.222656 108.773438 50.273438 108.269531 50.273438 Z M 144.621094 23.980469 C 140.453125 23.980469 136.054688 24.417969 131.625 25.289062 C 122.773438 27.03125 114.6875 30.34375 108.859375 34.609375 C 107.019531 35.957031 105.425781 37.378906 104.125 38.835938 C 102.105469 41.09375 102.433594 43.734375 103.410156 45.457031 C 104.382812 47.167969 106.472656 48.792969 109.421875 48.210938 C 110.628906 47.972656 111.742188 47.335938 112.554688 46.421875 C 113.34375 45.53125 114.347656 44.636719 115.542969 43.761719 C 119.996094 40.5 126.65625 37.820312 133.808594 36.414062 C 140.964844 35.003906 148.140625 34.960938 153.496094 36.292969 C 154.933594 36.648438 156.203125 37.09375 157.265625 37.621094 C 158.367188 38.160156 159.636719 38.324219 160.84375 38.089844 C 163.792969 37.507812 165.113281 35.214844 165.367188 33.261719 C 165.621094 31.296875 164.925781 28.726562 162.203125 27.40625 C 160.445312 26.550781 158.433594 25.839844 156.222656 25.289062 C 152.722656 24.417969 148.785156 23.980469 144.621094 23.980469 Z M 161.03125 39.042969 L 161.039062 39.042969 Z M 161.03125 39.042969 " fill-opacity="1" fill-rule="nonzero"/><path fill="#87796f" d="M 66.183594 59.46875 L 60.601562 61.5 L 61.042969 62.710938 C 63.882812 70.539062 73.496094 74.226562 82.507812 70.945312 C 91.515625 67.667969 96.519531 58.660156 93.675781 50.828125 L 93.234375 49.621094 L 75.757812 55.980469 Z M 66.183594 59.46875 " fill-opacity="1" fill-rule="nonzero"/><path fill="#3a312a" d="M 75.800781 73.125 C 73.496094 73.125 71.230469 72.71875 69.113281 71.90625 C 64.789062 70.246094 61.597656 67.097656 60.125 63.042969 L 59.6875 61.832031 C 59.503906 61.328125 59.761719 60.765625 60.269531 60.582031 L 65.851562 58.550781 C 66.355469 58.367188 66.914062 58.628906 67.097656 59.132812 C 67.28125 59.640625 67.019531 60.199219 66.515625 60.382812 L 61.847656 62.082031 L 61.957031 62.375 C 63.234375 65.894531 66.023438 68.632812 69.808594 70.085938 C 73.644531 71.554688 78.035156 71.535156 82.171875 70.03125 C 90.664062 66.941406 95.414062 58.476562 92.757812 51.164062 L 92.652344 50.867188 L 76.089844 56.898438 C 75.582031 57.082031 75.023438 56.820312 74.839844 56.316406 C 74.65625 55.808594 74.917969 55.25 75.425781 55.066406 L 92.902344 48.703125 C 93.40625 48.519531 93.964844 48.78125 94.148438 49.285156 L 94.589844 50.496094 C 97.609375 58.820312 92.339844 68.402344 82.835938 71.863281 C 80.53125 72.703125 78.144531 73.125 75.800781 73.125 Z M 75.800781 73.125 " fill-opacity="1" fill-rule="nonzero"/><path fill="#fae6ca" d="M 107.78125 36.890625 C 113.574219 41.578125 114.472656 50.082031 109.792969 55.878906 C 105.109375 61.679688 96.617188 62.578125 90.824219 57.890625 C 85.03125 53.203125 84.132812 44.699219 88.816406 38.902344 C 93.5 33.101562 101.992188 32.199219 107.78125 36.890625 Z M 107.78125 36.890625 " fill-opacity="1" fill-rule="nonzero"/><path fill="#3a312a" d="M 99.277344 61.871094 C 95.980469 61.871094 92.808594 60.753906 90.210938 58.648438 C 84.011719 53.628906 83.046875 44.496094 88.058594 38.289062 C 90.488281 35.28125 93.941406 33.398438 97.78125 32.992188 C 101.621094 32.585938 105.390625 33.699219 108.394531 36.132812 C 111.398438 38.5625 113.277344 42.019531 113.683594 45.867188 C 114.089844 49.710938 112.976562 53.484375 110.546875 56.492188 C 108.117188 59.5 104.667969 61.382812 100.824219 61.789062 C 100.308594 61.84375 99.789062 61.871094 99.277344 61.871094 Z M 99.328125 34.859375 C 98.882812 34.859375 98.433594 34.882812 97.984375 34.929688 C 94.664062 35.285156 91.675781 36.910156 89.574219 39.511719 C 85.234375 44.886719 86.070312 52.789062 91.4375 57.132812 C 94.035156 59.238281 97.300781 60.199219 100.621094 59.847656 C 103.945312 59.496094 106.933594 57.871094 109.035156 55.265625 C 111.136719 52.664062 112.097656 49.398438 111.746094 46.070312 C 111.394531 42.742188 109.769531 39.75 107.171875 37.648438 C 104.921875 35.828125 102.179688 34.859375 99.328125 34.859375 Z M 99.328125 34.859375 " fill-opacity="1" fill-rule="nonzero"/><path fill="#d7e057" d="M 102.992188 43.414062 C 103.253906 43.65625 103.488281 43.921875 103.695312 44.210938 C 103.90625 44.5 104.082031 44.804688 104.230469 45.128906 C 104.378906 45.453125 104.496094 45.789062 104.578125 46.136719 C 104.660156 46.484375 104.707031 46.835938 104.722656 47.191406 C 104.734375 47.546875 104.710938 47.902344 104.65625 48.253906 C 104.597656 48.605469 104.507812 48.945312 104.386719 49.28125 C 104.261719 49.617188 104.105469 49.933594 103.917969 50.238281 C 103.730469 50.539062 103.519531 50.824219 103.277344 51.085938 C 103.035156 51.34375 102.769531 51.582031 102.480469 51.789062 C 102.191406 51.996094 101.886719 52.175781 101.5625 52.324219 C 101.238281 52.472656 100.902344 52.589844 100.554688 52.671875 C 100.210938 52.753906 99.859375 52.800781 99.503906 52.8125 C 99.148438 52.828125 98.792969 52.804688 98.441406 52.75 C 98.089844 52.691406 97.75 52.601562 97.414062 52.476562 C 97.082031 52.355469 96.761719 52.199219 96.460938 52.011719 C 96.15625 51.824219 95.875 51.609375 95.613281 51.367188 C 95.355469 51.125 95.121094 50.859375 94.910156 50.570312 C 94.703125 50.28125 94.523438 49.976562 94.375 49.652344 C 94.226562 49.328125 94.113281 48.992188 94.03125 48.644531 C 93.949219 48.296875 93.898438 47.945312 93.886719 47.589844 C 93.875 47.234375 93.894531 46.878906 93.953125 46.527344 C 94.007812 46.175781 94.097656 45.832031 94.222656 45.5 C 94.347656 45.164062 94.503906 44.847656 94.6875 44.542969 C 94.875 44.238281 95.089844 43.957031 95.332031 43.695312 C 95.574219 43.4375 95.839844 43.199219 96.128906 42.992188 C 96.417969 42.78125 96.722656 42.605469 97.046875 42.457031 C 97.371094 42.308594 97.707031 42.191406 98.050781 42.109375 C 98.398438 42.027344 98.75 41.980469 99.105469 41.964844 C 99.460938 41.953125 99.8125 41.976562 100.164062 42.03125 C 100.515625 42.089844 100.859375 42.179688 101.191406 42.304688 C 101.527344 42.425781 101.84375 42.582031 102.148438 42.769531 C 102.449219 42.957031 102.730469 43.171875 102.992188 43.414062 Z M 102.992188 43.414062 " fill-opacity="1" fill-rule="nonzero"/><path fill="#3a312a" d="M 99.292969 53.792969 C 97.835938 53.792969 96.433594 53.300781 95.28125 52.371094 C 93.957031 51.292969 93.125 49.765625 92.945312 48.0625 C 92.765625 46.363281 93.257812 44.695312 94.332031 43.363281 C 95.40625 42.035156 96.929688 41.203125 98.628906 41.023438 C 100.328125 40.84375 101.996094 41.335938 103.324219 42.410156 C 104.652344 43.488281 105.480469 45.015625 105.660156 46.714844 C 105.84375 48.417969 105.347656 50.085938 104.277344 51.414062 C 103.203125 52.746094 101.675781 53.578125 99.976562 53.757812 C 99.746094 53.78125 99.519531 53.792969 99.292969 53.792969 Z M 99.3125 42.9375 C 99.152344 42.9375 98.996094 42.945312 98.835938 42.960938 C 97.65625 43.085938 96.59375 43.664062 95.847656 44.589844 C 95.097656 45.515625 94.757812 46.675781 94.882812 47.859375 C 95.007812 49.042969 95.585938 50.105469 96.507812 50.851562 C 97.433594 51.601562 98.589844 51.945312 99.773438 51.816406 C 100.953125 51.691406 102.015625 51.113281 102.761719 50.191406 C 103.507812 49.265625 103.851562 48.105469 103.726562 46.921875 C 103.601562 45.738281 103.023438 44.675781 102.101562 43.929688 C 101.300781 43.28125 100.324219 42.9375 99.3125 42.9375 Z M 99.3125 42.9375 " fill-opacity="1" fill-rule="nonzero"/><path fill="#dac6a8" d="M 121.117188 113.675781 C 119.273438 108.695312 115.496094 104.988281 110.765625 103.492188 C 108.570312 102.796875 106.28125 102.609375 103.9375 102.925781 C 103.675781 102.957031 103.410156 102.886719 103.203125 102.71875 C 102.996094 102.554688 102.867188 102.316406 102.839844 102.050781 C 102.527344 98.714844 101.46875 95.539062 99.78125 92.867188 C 96.945312 88.382812 92.488281 85.53125 87.546875 85.042969 C 85.382812 84.828125 83.21875 85.082031 81.164062 85.757812 C 84.738281 86.941406 87.875 89.421875 90.046875 92.867188 C 90.367188 93.375 90.664062 93.898438 90.941406 94.441406 C 91.8125 95.117188 92.589844 95.980469 93.242188 97.011719 C 94.304688 98.695312 94.953125 100.703125 95.140625 102.828125 C 97.160156 102.667969 99.128906 102.886719 101.027344 103.492188 C 105.214844 104.816406 108.65625 107.871094 110.667969 112.011719 C 112.070312 113.023438 113.171875 114.519531 113.859375 116.378906 C 114.859375 119.054688 114.878906 122.1875 113.929688 125.203125 C 113.125 127.75 111.703125 129.960938 109.867188 131.558594 C 108.285156 134.476562 106.085938 136.964844 103.460938 138.769531 C 101.542969 140.097656 99.472656 141.007812 97.296875 141.488281 C 97.550781 142.8125 97.621094 144.191406 97.492188 145.574219 C 97.148438 149.238281 95.375 152.546875 92.753906 154.917969 C 89.703125 160.378906 84.402344 164.476562 78.191406 165.894531 C 80.382812 166.382812 82.660156 166.542969 84.914062 166.355469 C 95.484375 165.492188 104.207031 156.867188 105.195312 146.300781 C 105.3125 145.121094 105.324219 143.910156 105.242188 142.695312 C 105.207031 142.195312 105.558594 141.746094 106.058594 141.667969 C 108.589844 141.265625 110.992188 140.292969 113.199219 138.769531 C 116.960938 136.179688 119.84375 132.1875 121.308594 127.535156 C 122.777344 122.890625 122.707031 117.964844 121.117188 113.675781 Z M 121.117188 113.675781 " fill-opacity="1" fill-rule="nonzero"/></svg>