<svg xmlns="http://www.w3.org/2000/svg" xmlns:xlink="http://www.w3.org/1999/xlink" width="250" zoomAndPan="magnify" viewBox="0 0 187.5 187.499992" height="250" preserveAspectRatio="xMidYMid meet" version="1.0"><defs><clipPath id="c894529f84"><path d="M 77 52 L 171.824219 52 L 171.824219 159 L 77 159 Z M 77 52 " clip-rule="nonzero"/></clipPath><clipPath id="f8b03d1da1"><path d="M 106 28.125 L 163 28.125 L 163 80 L 106 80 Z M 106 28.125 " clip-rule="nonzero"/></clipPath><clipPath id="ad2f870e1e"><path d="M 15.492188 58 L 83 58 L 83 163 L 15.492188 163 Z M 15.492188 58 " clip-rule="nonzero"/></clipPath></defs><path fill="#ffffff" d="M 0 0 L 187 0 L 187 187 L 0 187 Z M 0 0 " fill-opacity="1" fill-rule="nonzero"/><path fill="#ecffd4" d="M 0 0 L 187 0 L 187 187 L 0 187 Z M 0 0 " fill-opacity="1" fill-rule="nonzero"/><g clip-path="url(#c894529f84)"><path fill="#ffcea1" d="M 171.71875 108.195312 C 171.71875 113.082031 166.976562 122.546875 160.519531 128.023438 C 158.992188 129.300781 156.992188 130.859375 154.777344 132.539062 C 154.683594 140.632812 156.960938 150.285156 154.777344 156.105469 C 100.742188 164.261719 89.132812 149.878906 89.132812 149.878906 C 89.132812 149.878906 89.945312 140.011719 94.25 129.613281 C 98.152344 120.179688 100.804688 108.878906 104.078125 104.613281 C 104.296875 101.160156 104.390625 98.324219 104.265625 97.484375 C 103.859375 94.871094 104.546875 91.695312 104.546875 91.695312 C 104.546875 91.695312 102.207031 93.84375 100.148438 97.484375 C 98.089844 101.128906 89.664062 104.304688 88.699219 104.210938 C 87.730469 104.117188 82.738281 98.636719 80.867188 94.652344 C 78.996094 90.636719 77.527344 78.929688 77.152344 78.929688 C 76.75 78.929688 88.886719 70.339844 88.886719 70.339844 C 89.382812 68.097656 94.46875 66.324219 95.4375 65.453125 C 96.402344 64.578125 97.589844 63.488281 99.835938 58.820312 C 102.082031 54.121094 107.074219 53.339844 108.945312 52.59375 C 108.945312 52.59375 127.042969 71.800781 131.722656 71.894531 C 136.433594 71.988281 153.15625 74.011719 157.929688 70.339844 C 159.925781 72.582031 162.140625 75.351562 164.230469 78.621094 C 170.128906 87.804688 171.71875 103.308594 171.71875 108.195312 Z M 171.71875 108.195312 " fill-opacity="1" fill-rule="nonzero"/></g><g clip-path="url(#f8b03d1da1)"><path fill="#34352c" d="M 108.601562 58.976562 C 106.105469 57.605469 105.515625 54.121094 106.417969 51.410156 C 106.605469 50.882812 106.824219 50.320312 106.824219 49.761719 C 106.792969 49.292969 106.636719 48.859375 106.511719 48.390625 C 106.230469 47.113281 106.636719 45.714844 107.574219 44.8125 C 107.917969 44.46875 108.320312 44.21875 108.570312 43.816406 C 108.789062 43.441406 108.882812 42.972656 108.945312 42.539062 C 109.445312 40.046875 110.878906 37.746094 112.878906 36.1875 C 113.875 33.636719 116.683594 31.890625 119.398438 32.171875 C 121.550781 29.652344 125.230469 28.59375 128.351562 29.621094 C 129.164062 28.40625 130.910156 28.125 132.285156 28.59375 C 133.65625 29.058594 134.78125 30.085938 135.808594 31.082031 C 137.121094 29.835938 139.148438 29.027344 140.925781 29.121094 C 141.457031 29.152344 142.019531 29.246094 142.484375 29.558594 C 142.953125 29.867188 143.265625 30.367188 143.234375 30.925781 C 144.515625 30.894531 145.855469 30.957031 147.039062 31.519531 C 148.226562 32.046875 149.226562 33.105469 149.410156 34.382812 C 151.378906 34.476562 153 36.4375 153.1875 38.367188 C 155.746094 39.921875 157.335938 42.972656 157.273438 45.964844 C 159.957031 47.582031 160.988281 51.316406 160.457031 54.398438 C 160.269531 55.550781 161.207031 56.175781 161.828125 57.171875 C 162.015625 57.480469 162.234375 57.792969 162.359375 58.136719 C 162.484375 58.507812 162.484375 58.945312 162.484375 59.351562 C 162.453125 60.4375 162.328125 61.652344 161.515625 62.402344 C 161.332031 62.554688 161.113281 62.710938 161.019531 62.960938 C 160.925781 63.148438 160.957031 63.367188 160.988281 63.582031 C 161.207031 66.167969 160.425781 69.0625 158.179688 70.371094 C 155.652344 71.832031 153.78125 74.636719 151.441406 76.378906 C 149.101562 78.121094 146.386719 79.460938 143.515625 79.804688 C 142.390625 79.925781 141.238281 79.894531 140.207031 79.460938 C 139.367188 79.085938 138.648438 78.496094 137.992188 77.871094 C 135.746094 75.847656 133.6875 73.609375 131.816406 71.242188 C 130.472656 69.53125 129.226562 67.722656 127.664062 66.230469 C 126.074219 64.734375 124.109375 63.550781 121.925781 63.398438 C 119.679688 63.242188 117.402344 64.175781 115.25 63.550781 C 114.0625 63.210938 113.097656 62.460938 112.128906 61.714844 C 111.003906 60.78125 109.851562 59.660156 108.601562 58.976562 Z M 108.601562 58.976562 " fill-opacity="1" fill-rule="nonzero"/></g><g clip-path="url(#ad2f870e1e)"><path fill="#ff9f73" d="M 81.617188 108.847656 C 80.242188 113.175781 77.621094 113.175781 78.558594 121.738281 C 79.460938 130.296875 76.5 150.6875 76.40625 153.273438 C 76.34375 155.855469 80.242188 155.609375 79.679688 159.09375 C 79.304688 161.492188 71.195312 161.085938 67.449219 160.527344 C 63.707031 159.996094 61.773438 159.996094 61.492188 158.378906 C 61.492188 158.378906 58.214844 160.929688 54.910156 160.929688 C 54.472656 160.929688 53.910156 160.929688 53.253906 160.898438 C 52.570312 161.769531 50.851562 162.582031 47.390625 162.613281 C 42.835938 162.644531 39.527344 162.019531 29.730469 162.488281 C 19.933594 162.953125 15.785156 162.175781 15.691406 157.257812 C 15.597656 152.339844 19.589844 147.886719 19.589844 147.886719 C 21.398438 141.878906 27.046875 133.191406 29.230469 128.742188 C 31.414062 124.257812 37.9375 109.78125 40.027344 104.894531 C 42.117188 100.039062 46.703125 96.023438 46.703125 96.023438 C 46.046875 81.046875 52.351562 80.394531 52.351562 80.394531 C 53.410156 77.996094 55.96875 75.816406 58.683594 75.382812 C 58.683594 75.382812 62.832031 69.652344 63.675781 69.1875 C 64.519531 68.71875 72.597656 60.9375 72.597656 60.9375 C 72.597656 60.9375 72.160156 58.882812 73.003906 58.414062 C 73.847656 57.949219 76.4375 59.226562 77.089844 60.65625 C 77.746094 62.089844 83.019531 72.765625 82.019531 76.96875 C 81.023438 81.171875 79.585938 81.171875 79.585938 81.171875 C 79.585938 81.171875 80.367188 87.585938 78.277344 93.78125 C 78.277344 93.78125 79.585938 96.894531 80.960938 98.605469 C 82.363281 100.347656 82.988281 104.519531 81.617188 108.847656 Z M 81.617188 108.847656 " fill-opacity="1" fill-rule="nonzero"/></g><path fill="#ef7a63" d="M 147.382812 54.710938 C 147.007812 54.710938 146.605469 54.585938 146.292969 54.335938 C 146.292969 54.335938 148.101562 54.242188 148.601562 53.777344 C 149.289062 53.15625 149.910156 51.660156 149.910156 51.660156 C 149.878906 52.6875 149.503906 53.558594 148.914062 54.121094 C 148.539062 54.460938 147.945312 54.710938 147.382812 54.710938 Z M 155.933594 59.722656 C 155.933594 59.722656 155.902344 59.785156 155.839844 59.910156 C 155.871094 59.847656 155.902344 59.785156 155.933594 59.722656 Z M 156.464844 53.09375 C 156.960938 52.3125 157.085938 51.347656 157.179688 50.507812 C 157.179688 50.507812 156.527344 52.160156 156.089844 52.84375 C 155.683594 53.464844 154 54.152344 154 54.152344 C 154.1875 54.214844 154.371094 54.242188 154.558594 54.242188 C 155.308594 54.214844 156.058594 53.714844 156.464844 53.09375 Z M 155.777344 60.003906 C 155.808594 59.972656 155.839844 59.941406 155.839844 59.878906 C 155.808594 59.941406 155.808594 59.972656 155.777344 60.003906 Z M 153.75 61.21875 C 153.90625 61.25 154.0625 61.25 154.214844 61.25 C 154.871094 61.25 155.496094 60.4375 155.777344 60.003906 C 155.339844 60.5625 154.558594 60.90625 153.84375 60.75 C 153.46875 60.6875 153.125 60.5 152.78125 60.285156 C 152.34375 60.066406 151.347656 60.222656 151.347656 60.222656 C 151.785156 60.285156 152.15625 60.46875 152.5625 60.6875 C 152.90625 60.90625 153.3125 61.125 153.75 61.21875 Z M 150.628906 68.347656 C 151.8125 66.820312 151.472656 64.050781 151.097656 63.519531 C 149.660156 61.683594 147.007812 60.46875 143.859375 63.242188 C 142.671875 64.269531 141.082031 65.203125 139.523438 65.328125 C 137.960938 65.421875 136.308594 64.796875 135.496094 63.457031 C 134.875 62.429688 134.78125 61.125 134 60.222656 C 133.15625 59.257812 131.753906 59.007812 130.441406 58.976562 C 129.164062 58.945312 127.789062 59.039062 126.636719 58.507812 C 125.046875 57.792969 124.109375 56.019531 123.859375 54.273438 C 123.765625 53.652344 123.734375 52.96875 123.390625 52.4375 C 122.207031 53.402344 119.398438 53 118.085938 54.027344 C 117.496094 54.492188 117.058594 55.117188 116.496094 55.644531 C 115.777344 56.359375 114.875 56.921875 114 57.417969 C 112.472656 58.292969 110.695312 59.070312 109.007812 58.976562 C 109.820312 61.808594 111.972656 64.269531 112.035156 65.699219 C 112.128906 67.320312 111.035156 71.242188 110.351562 73.453125 C 109.664062 75.664062 109.164062 76.566406 109.757812 77.03125 C 110.320312 77.53125 112.878906 78.089844 112.878906 78.089844 C 112.878906 78.089844 115.40625 86.339844 117.871094 87.960938 C 120.335938 89.578125 124.484375 88.707031 124.484375 88.707031 C 124.484375 88.707031 123.671875 94.339844 123.328125 97.515625 C 123.328125 97.515625 125.203125 96.054688 128.476562 94.496094 C 131.753906 92.941406 142.890625 88.800781 147.914062 85.03125 C 152.9375 81.265625 154.402344 75.664062 154.714844 71.738281 C 154.714844 71.707031 150.910156 72.984375 150.628906 68.347656 Z M 155.777344 67.007812 C 155.308594 67.226562 153.96875 67.132812 153.96875 67.132812 C 154.277344 67.476562 154.683594 67.597656 155.121094 67.597656 C 155.433594 67.597656 155.714844 67.539062 155.964844 67.414062 C 156.589844 67.132812 157.085938 65.824219 157.085938 65.824219 C 156.742188 66.261719 156.308594 66.757812 155.777344 67.007812 Z M 137.929688 58.820312 C 138.585938 59.007812 139.304688 59.007812 139.894531 58.945312 L 139.957031 58.945312 C 140.363281 58.914062 140.769531 58.882812 141.144531 59.007812 C 141.488281 59.101562 141.800781 59.410156 141.800781 59.753906 C 141.800781 59.753906 141.738281 58.726562 141.269531 58.570312 C 140.800781 58.414062 140.363281 58.445312 139.894531 58.476562 L 139.832031 58.476562 C 139.273438 58.507812 138.617188 58.539062 138.023438 58.351562 C 137.429688 58.167969 136.339844 57.449219 136.339844 57.449219 C 136.621094 58.105469 137.183594 58.601562 137.929688 58.820312 Z M 110.601562 130.453125 C 110.601562 130.453125 105.140625 124.132812 101.769531 121.890625 C 98.402344 119.621094 88.011719 108.941406 86.699219 106.855469 C 85.984375 105.703125 84.703125 103.710938 83.019531 102.3125 C 83.769531 101.9375 84.484375 101.5 85.171875 101.003906 C 83.550781 99.105469 81.800781 96.707031 80.867188 94.683594 C 80.304688 93.5 79.804688 91.664062 79.335938 89.640625 C 79.121094 91.011719 78.808594 92.441406 78.308594 93.84375 C 78.308594 93.84375 79.617188 96.957031 80.992188 98.667969 C 81.523438 99.351562 81.957031 100.410156 82.175781 101.6875 C 81.023438 100.910156 79.679688 100.503906 78.277344 100.785156 C 78.277344 100.785156 78.183594 104.304688 75 105.082031 C 71.820312 105.859375 70.070312 105.394531 67.824219 106.574219 C 65.546875 107.757812 61.804688 106.667969 61.023438 104.707031 C 60.242188 102.746094 60.148438 99.011719 59.839844 98.480469 C 59.527344 97.921875 58.964844 93.8125 57.1875 93.875 C 57.1875 93.875 56.625 94.589844 56.71875 96.613281 C 56.71875 96.613281 56.09375 91.226562 54.691406 91.164062 C 54.691406 91.164062 54.597656 92.972656 53.347656 94.214844 C 55.003906 98.949219 53.972656 104.273438 54.285156 105.207031 C 54.597656 106.140625 57.03125 105.984375 57.03125 105.984375 C 57.03125 105.984375 57.125 107.632812 58.589844 108.101562 C 60.085938 108.566406 60.867188 111.464844 64.519531 111.464844 C 68.167969 111.464844 76.40625 112.707031 78.277344 113.640625 C 80.148438 114.578125 91.535156 142.5 99.679688 148.261719 C 103.425781 150.90625 118.492188 150.75 124.921875 147.015625 C 124.921875 147.015625 116.246094 134.78125 114.21875 128.460938 C 114.21875 128.335938 112.597656 129.207031 110.601562 130.453125 Z M 62.738281 74.417969 C 64.269531 73.453125 66.921875 74.417969 66.921875 74.417969 C 67.109375 74.230469 67.542969 73.671875 67.542969 73.671875 C 67.542969 73.671875 69.757812 74.945312 70.945312 74.167969 C 72.160156 73.421875 71.851562 70.183594 71.851562 70.183594 C 71.851562 70.183594 73.691406 70.496094 74.316406 68.78125 C 74.9375 67.070312 72.972656 62.214844 72.597656 60.90625 C 72.597656 60.90625 71.382812 60.285156 70.445312 60.90625 C 69.511719 61.527344 69.324219 63.488281 69.324219 63.488281 C 69.324219 63.488281 67.230469 63.242188 65.796875 64.050781 C 64.332031 64.859375 64.332031 66.632812 64.332031 66.632812 C 64.332031 66.632812 62.179688 66.074219 60.773438 67.351562 C 59.371094 68.625 60.273438 70.804688 60.273438 70.804688 C 60.273438 70.804688 59.402344 71.304688 58.683594 72.269531 C 57.996094 73.203125 58.683594 75.351562 58.683594 75.351562 C 59.339844 75.320312 61.242188 75.382812 62.738281 74.417969 Z M 62.738281 74.417969 " fill-opacity="1" fill-rule="nonzero"/><path fill="#34352c" d="M 147.976562 63.925781 C 146.636719 64.269531 144.296875 65.980469 144.296875 65.980469 C 145.136719 64.765625 146.449219 63.832031 147.882812 63.457031 Z M 112.878906 78.058594 C 112.878906 78.058594 113.066406 78.683594 113.066406 78.683594 C 114.25 78.683594 115.34375 78.121094 116.402344 77.6875 C 116.402344 77.6875 114 78.058594 112.878906 78.058594 Z M 123.140625 66.167969 C 122.707031 65.484375 121.832031 65.636719 121.019531 65.574219 C 119.523438 65.421875 118.054688 65.203125 116.589844 64.921875 C 115.996094 64.796875 115.375 64.671875 114.75 64.734375 C 114.125 64.796875 113.5 64.984375 113.1875 65.511719 C 114.875 65.453125 116.527344 65.980469 118.179688 66.355469 C 119.835938 66.726562 121.613281 66.914062 123.140625 66.167969 Z M 119.929688 70.589844 C 120.085938 69.714844 119.117188 67.382812 118.054688 67.257812 C 116.683594 67.101562 117.308594 69.777344 117.683594 70.527344 C 117.960938 71.085938 118.523438 71.644531 119.117188 71.492188 C 119.554688 71.429688 119.867188 71.023438 119.929688 70.589844 Z M 116.214844 82.167969 C 115.558594 82.199219 114.78125 82.199219 114.21875 81.859375 C 114.3125 82.074219 114.375 82.292969 114.46875 82.480469 C 114.875 82.605469 115.3125 82.667969 115.714844 82.667969 C 115.902344 82.667969 116.058594 82.667969 116.214844 82.636719 C 116.746094 82.605469 117.339844 82.542969 117.871094 82.355469 C 118.492188 82.136719 118.960938 81.765625 119.242188 81.296875 C 119.242188 81.296875 118.210938 81.734375 117.714844 81.917969 C 117.277344 82.074219 116.808594 82.136719 116.214844 82.167969 Z M 77.058594 109.191406 C 77.371094 109.285156 77.683594 109.347656 77.933594 109.347656 C 77.933594 109.347656 77.589844 109.285156 77.058594 109.191406 Z M 73.941406 108.226562 L 74.191406 108.351562 C 74.84375 108.722656 76.21875 109.035156 77.089844 109.191406 C 76.1875 108.910156 75.125 108.320312 74.410156 107.945312 L 74.160156 107.820312 C 73.222656 107.292969 73.003906 107.230469 70.757812 107.324219 C 68.230469 107.449219 65.609375 107.136719 65.609375 107.136719 C 66.109375 107.726562 68.636719 107.882812 70.757812 107.789062 C 72.972656 107.664062 73.097656 107.757812 73.941406 108.226562 Z M 69.976562 67.039062 C 70.445312 68.316406 71.195312 69.25 71.632812 69.683594 C 71.226562 69.0625 70.695312 67.628906 70.414062 66.882812 C 70.257812 66.480469 70.164062 66.167969 70.039062 65.917969 C 69.605469 64.890625 69.511719 63.863281 69.542969 63.582031 C 69.542969 63.582031 69.136719 65.015625 69.605469 66.105469 C 69.726562 66.292969 69.851562 66.632812 69.976562 67.039062 Z M 71.945312 69.964844 C 71.945312 69.964844 71.820312 69.871094 71.632812 69.652344 C 71.726562 69.839844 71.851562 69.964844 71.945312 69.964844 Z M 65.984375 69.714844 C 65.296875 68.625 64.113281 66.726562 64.113281 66.726562 C 64.332031 67.660156 65.015625 69 65.609375 69.964844 C 66.234375 70.960938 67.792969 73.609375 67.792969 73.609375 C 67.511719 72.859375 66.640625 70.710938 65.984375 69.714844 Z M 60.460938 70.679688 L 60.148438 71.023438 C 61.054688 71.863281 62.550781 74.542969 62.582031 74.542969 C 62.550781 74.542969 61.398438 71.554688 60.460938 70.679688 Z M 70.257812 72.019531 C 69.757812 72.207031 69.136719 73.234375 69.136719 73.234375 C 69.574219 72.859375 70.132812 72.519531 70.632812 72.363281 L 70.851562 72.300781 L 70.757812 72.082031 C 70.539062 71.492188 70.039062 70.371094 69.230469 69.53125 L 69.167969 69.46875 L 69.074219 69.46875 C 68.261719 69.40625 67.417969 69.964844 67.203125 70.773438 C 67.203125 70.773438 68.355469 69.933594 68.949219 69.933594 C 69.480469 70.464844 69.945312 71.210938 70.257812 72.019531 Z M 71.507812 66.945312 C 71.632812 66.789062 71.851562 66.664062 72.039062 66.539062 C 72.097656 66.601562 72.160156 66.664062 72.222656 66.726562 C 72.316406 66.851562 72.441406 66.945312 72.503906 67.039062 C 72.753906 67.382812 73.035156 67.722656 73.191406 68.097656 C 73.191406 68.128906 73.191406 68.128906 73.191406 68.128906 C 73.160156 68.160156 73.128906 68.160156 73.128906 68.191406 C 72.816406 68.441406 72.722656 69.5 72.722656 69.5 C 72.816406 69.0625 73.160156 68.75 73.410156 68.566406 C 73.503906 68.503906 73.628906 68.410156 73.660156 68.222656 C 73.691406 68.097656 73.628906 68.003906 73.628906 67.941406 C 73.472656 67.476562 73.160156 67.101562 72.878906 66.726562 C 72.785156 66.632812 72.691406 66.511719 72.566406 66.386719 C 72.472656 66.261719 72.347656 66.167969 72.285156 66.074219 L 72.160156 65.917969 L 71.976562 66.011719 C 71.695312 66.167969 71.382812 66.324219 71.132812 66.601562 C 70.851562 66.945312 70.757812 67.382812 70.914062 67.722656 C 70.914062 67.785156 71.351562 67.132812 71.507812 66.945312 Z M 63.082031 72.457031 L 63.519531 72.613281 C 63.675781 72.144531 64.796875 71.460938 64.796875 71.460938 C 64.082031 71.304688 63.300781 71.769531 63.082031 72.457031 Z M 58.589844 107.820312 C 59.402344 107.820312 60.210938 107.449219 60.742188 106.855469 L 60.398438 106.542969 C 59.933594 107.105469 58.402344 107.820312 58.402344 107.820312 C 58.464844 107.820312 58.527344 107.820312 58.589844 107.820312 Z M 87.449219 110.40625 C 87.355469 110.714844 87.105469 111.058594 86.730469 111.121094 L 86.792969 111.585938 C 87.355469 111.527344 87.761719 111.027344 87.886719 110.53125 C 88.011719 110.0625 87.980469 109.5625 87.917969 109.128906 C 87.917969 109.128906 87.542969 110.03125 87.449219 110.40625 Z M 104.515625 72.175781 C 103.984375 70.589844 103.300781 69.0625 102.457031 67.628906 C 102.457031 67.628906 103.546875 70.773438 104.078125 72.332031 Z M 92.566406 69.871094 L 92.566406 69.40625 C 91.257812 69.40625 88.792969 70.371094 88.792969 70.371094 C 90.039062 70.027344 91.289062 69.839844 92.566406 69.871094 Z M 99.835938 69.40625 C 99.117188 67.941406 98.402344 66.417969 97.746094 64.921875 C 97.746094 64.921875 98.679688 68.128906 99.398438 69.621094 Z M 105.171875 72.859375 C 105.546875 71.304688 105.828125 69.714844 105.546875 68.160156 C 105.546875 68.160156 104.984375 71.707031 104.546875 73.515625 C 104.359375 74.230469 104.203125 74.976562 104.078125 75.695312 C 104.015625 75.941406 103.984375 76.222656 103.953125 76.472656 C 103.734375 78.152344 103.828125 79.894531 103.921875 81.546875 L 104.453125 91.601562 L 104.921875 91.570312 L 104.390625 81.515625 C 104.296875 79.742188 104.203125 77.902344 104.453125 76.128906 C 104.484375 76.003906 104.515625 75.847656 104.515625 75.726562 C 105.203125 73.234375 107.886719 69.839844 107.886719 69.839844 C 106.792969 70.679688 105.859375 71.707031 105.171875 72.859375 Z M 46.515625 108.507812 C 46.890625 108.816406 47.421875 109.003906 48.074219 109.066406 C 48.261719 109.097656 48.417969 109.097656 48.574219 109.097656 C 51.320312 109.097656 53.535156 106.949219 54.628906 105.609375 C 54.628906 105.609375 50.882812 108.878906 48.105469 108.597656 C 47.546875 108.535156 47.109375 108.382812 46.796875 108.132812 C 46.296875 107.726562 46.015625 107.011719 46.015625 106.203125 C 46.015625 105.578125 46.203125 104.925781 46.359375 104.335938 C 46.390625 104.210938 46.421875 104.054688 46.453125 103.929688 C 47.078125 101.375 47.234375 98.667969 46.828125 96.085938 C 46.828125 96.085938 46.609375 101.34375 45.984375 103.804688 C 45.953125 103.929688 45.921875 104.054688 45.890625 104.210938 C 45.734375 104.863281 45.546875 105.515625 45.546875 106.203125 C 45.546875 107.167969 45.890625 108.007812 46.515625 108.507812 Z M 48.917969 98.917969 C 49.324219 100.441406 49.761719 102.03125 49.792969 103.617188 C 49.824219 104.675781 49.855469 107.324219 49.855469 107.324219 C 50.167969 105.828125 50.289062 104.707031 50.261719 103.617188 C 50.230469 101.96875 49.792969 100.378906 49.355469 98.824219 C 49.136719 98.015625 48.917969 97.207031 48.761719 96.394531 C 48.355469 94.371094 48.199219 91.507812 49.886719 89.578125 C 50.414062 88.988281 51.039062 88.519531 51.726562 88.023438 C 52.039062 87.804688 52.382812 87.554688 52.695312 87.304688 C 52.722656 87.367188 52.722656 87.429688 52.753906 87.492188 C 52.878906 87.835938 52.972656 88.175781 53.035156 88.488281 C 53.128906 89.171875 53.035156 89.890625 52.910156 90.605469 C 52.878906 90.761719 52.847656 90.949219 52.847656 91.101562 C 52.785156 91.601562 53.097656 92.660156 53.316406 93.34375 C 53.160156 92.566406 53.253906 91.632812 53.316406 91.164062 C 53.347656 91.011719 53.378906 90.824219 53.378906 90.667969 C 53.503906 89.921875 53.628906 89.171875 53.503906 88.425781 C 53.441406 88.050781 53.316406 87.679688 53.222656 87.335938 C 53.066406 86.871094 52.445312 85.96875 52.445312 85.96875 C 52.445312 86.246094 52.507812 86.527344 52.570312 86.808594 C 52.226562 87.085938 51.820312 87.367188 51.476562 87.648438 C 50.789062 88.113281 50.105469 88.613281 49.542969 89.265625 C 47.765625 91.351562 47.886719 94.339844 48.324219 96.457031 C 48.480469 97.296875 48.699219 98.140625 48.917969 98.917969 Z M 52.539062 83.789062 C 52.320312 82.730469 52.070312 80.332031 52.039062 80.519531 C 51.851562 81.640625 51.851562 82.792969 52.070312 83.882812 Z M 53.316406 93.34375 C 53.378906 93.59375 53.441406 93.8125 53.535156 94 C 53.535156 94 53.441406 93.71875 53.316406 93.34375 Z M 72.410156 96.519531 C 71.570312 95.679688 67.855469 95.773438 66.421875 97.484375 C 66.359375 97.578125 66.296875 97.671875 66.234375 97.765625 C 66.234375 97.734375 66.203125 97.671875 66.203125 97.609375 C 66.015625 95.492188 65.984375 93.34375 66.140625 91.257812 C 66.140625 91.257812 65.546875 95.523438 65.734375 97.671875 C 65.765625 98.015625 65.890625 98.234375 66.078125 98.324219 C 65.984375 99.820312 68.542969 101.375 69.976562 101.222656 L 69.757812 101.285156 C 70.507812 104.894531 70.132812 105.578125 70.101562 105.609375 L 70.289062 105.734375 L 70.476562 105.890625 C 70.570312 105.765625 71.039062 104.988281 70.226562 101.191406 C 72.128906 100.722656 73.222656 97.359375 72.410156 96.519531 Z M 61.835938 90.324219 C 61.867188 88.582031 59.960938 87.867188 59.308594 89.703125 C 59.183594 90.046875 59.089844 90.417969 59.152344 90.761719 C 59.277344 91.414062 59.992188 91.851562 60.648438 91.726562 C 61.304688 91.601562 61.804688 90.980469 61.835938 90.324219 Z M 75.6875 90.261719 C 77.152344 90.199219 77.089844 87.773438 76.03125 87.210938 C 74.75 86.496094 74.253906 88.363281 74.5 89.296875 C 74.65625 89.796875 75.125 90.292969 75.6875 90.261719 Z M 71.507812 73.359375 C 71.507812 73.359375 73.035156 73.546875 73.785156 73.578125 C 74.378906 73.609375 75 73.609375 75.59375 73.484375 C 75.75 73.453125 75.9375 73.390625 76.09375 73.265625 C 76.28125 73.109375 76.375 72.921875 76.4375 72.734375 L 76.75 71.988281 L 76 72.550781 C 75.9375 72.671875 75.875 72.828125 75.78125 72.890625 C 75.71875 72.953125 75.59375 72.984375 75.5 73.015625 C 74.96875 73.140625 74.378906 73.109375 73.816406 73.109375 C 73.035156 73.109375 72.253906 73.078125 71.507812 73.359375 Z M 74.875 70.589844 L 74.410156 70.679688 C 74.53125 71.273438 74.5625 72.613281 74.5625 72.613281 C 74.90625 71.988281 75 71.273438 74.875 70.589844 Z M 77.964844 78.089844 C 77.964844 78.089844 79.246094 80.207031 79.367188 81.328125 L 79.835938 81.265625 C 79.710938 80.050781 78.996094 78.835938 77.964844 78.089844 Z M 60.648438 132.042969 C 60.210938 131.417969 59.589844 130.859375 58.808594 130.265625 C 54.722656 127.183594 51.945312 128.523438 51.945312 128.523438 C 54.285156 128.554688 56.625 129.300781 58.527344 130.640625 C 59.621094 131.386719 60.304688 132.195312 60.679688 133.070312 L 60.742188 133.039062 C 61.273438 138.453125 62.023438 146.765625 62.023438 149.164062 C 62.023438 149.445312 62.023438 149.722656 61.992188 149.972656 L 61.867188 149.878906 C 60.117188 151.777344 57.21875 151.964844 54.410156 151.996094 L 45.453125 152.089844 C 43.113281 152.121094 40.496094 152.121094 38.246094 153.304688 C 38.246094 153.304688 43.175781 152.585938 45.453125 152.554688 L 54.410156 152.464844 C 55.21875 152.464844 56.0625 152.433594 56.84375 152.371094 C 56.875 152.554688 57 152.742188 57.375 152.929688 C 57.621094 153.054688 57.902344 153.179688 58.183594 153.273438 C 58.589844 153.460938 58.996094 153.613281 59.402344 153.832031 C 60.117188 154.238281 61.273438 155.109375 61.273438 155.109375 C 60.992188 154.457031 60.460938 153.894531 59.652344 153.429688 C 59.246094 153.210938 58.808594 153.023438 58.402344 152.835938 C 58.152344 152.710938 57.871094 152.617188 57.621094 152.496094 C 57.5 152.433594 57.40625 152.371094 57.375 152.308594 C 59.121094 152.089844 60.742188 151.621094 61.992188 150.441406 C 61.898438 151.527344 61.710938 152.585938 61.523438 153.644531 C 61.210938 155.484375 60.929688 157.070312 61.273438 158.441406 C 61.273438 158.441406 61.679688 155.515625 61.992188 153.738281 C 62.242188 152.339844 62.519531 150.78125 62.519531 149.164062 C 62.519531 145.394531 61.992188 133.441406 60.304688 128.242188 C 60.273438 128.210938 60.429688 129.769531 60.648438 132.042969 Z M 71.757812 154.488281 C 71.070312 154.082031 70.726562 153.863281 70.789062 153.179688 C 70.820312 152.898438 70.820312 152.554688 70.820312 152.152344 C 70.851562 150.441406 70.945312 147.574219 72.097656 142.625 C 72.910156 139.230469 72.753906 134.625 72.660156 130.515625 C 72.566406 127.308594 72.472656 123.230469 72.472656 123.230469 C 72.007812 124.445312 72.097656 127.277344 72.191406 130.515625 C 72.316406 134.59375 72.441406 139.171875 71.664062 142.5 C 70.476562 147.480469 70.414062 150.378906 70.351562 152.121094 C 70.351562 152.496094 70.320312 152.835938 70.320312 153.117188 C 70.257812 154.113281 70.882812 154.457031 71.539062 154.859375 C 72.066406 155.171875 72.660156 155.515625 73.066406 156.292969 C 73.753906 157.601562 74.035156 159.0625 73.753906 159.933594 C 73.628906 160.277344 73.378906 161.085938 73.378906 161.085938 C 73.785156 160.898438 74.066406 160.558594 74.222656 160.058594 C 74.53125 159.0625 74.253906 157.476562 73.503906 156.042969 C 73.003906 155.203125 72.316406 154.796875 71.757812 154.488281 Z M 77.339844 160.152344 L 77.746094 160.371094 C 78.152344 159.53125 78.277344 158.566406 78.058594 157.664062 C 78.058594 157.664062 77.714844 159.4375 77.339844 160.152344 Z M 74.9375 160.929688 L 75.375 161.085938 C 75.65625 160.214844 75.71875 159.3125 75.5 158.410156 C 75.5 158.410156 75.1875 160.152344 74.9375 160.929688 Z M 70.320312 160.371094 L 70.726562 160.589844 C 71.476562 158.378906 70.070312 156.914062 70.070312 156.914062 C 70.757812 157.910156 70.851562 159.28125 70.320312 160.371094 Z M 66.859375 159.996094 L 67.292969 160.183594 C 67.605469 159.46875 67.699219 158.6875 67.605469 157.910156 C 67.574219 157.941406 67.109375 159.375 66.859375 159.996094 Z M 50.167969 154.300781 C 48.605469 153.554688 46.765625 153.242188 44.488281 153.304688 C 43.238281 153.335938 42.023438 153.492188 40.804688 153.644531 C 40.152344 153.738281 39.464844 153.800781 38.777344 153.863281 C 34.847656 154.238281 28.605469 153.957031 24.957031 152.835938 C 23.925781 152.527344 22.710938 152.027344 22.210938 151 C 21.898438 150.316406 21.585938 148.664062 21.585938 148.664062 C 21.460938 149.503906 21.398438 150.410156 21.773438 151.1875 C 22.335938 152.371094 23.679688 152.929688 24.800781 153.273438 C 28.636719 154.457031 34.878906 154.671875 38.777344 154.300781 C 39.464844 154.238281 40.152344 154.144531 40.804688 154.050781 C 41.992188 153.894531 43.238281 153.738281 44.425781 153.707031 C 46.640625 153.613281 48.449219 153.863281 49.886719 154.640625 C 52.539062 156.105469 53.410156 160.898438 53.410156 160.898438 C 54.410156 157.972656 52.039062 155.203125 50.167969 154.300781 Z M 26.082031 150.097656 L 25.863281 149.691406 C 25.113281 150.066406 24.082031 151.839844 24.175781 151.839844 C 24.207031 151.808594 25.394531 150.410156 26.082031 150.097656 Z M 72.910156 128.992188 L 73.097656 129.425781 C 75 128.617188 76.40625 126.6875 76.59375 124.632812 C 76.59375 124.632812 74.65625 128.242188 72.910156 128.992188 Z M 141.519531 141.941406 C 135.121094 146.175781 127.851562 148.230469 126.886719 148.476562 C 126.574219 148.230469 124.703125 147.015625 124.703125 147.015625 C 125.203125 147.792969 126.636719 148.851562 126.699219 148.914062 L 126.792969 148.976562 L 126.917969 148.945312 C 127.011719 148.914062 134.875 146.890625 141.800781 142.3125 C 147.414062 138.609375 151.441406 135.433594 153.625 133.753906 C 154.15625 133.316406 154.621094 132.976562 154.933594 132.726562 C 154.933594 132.726562 153.875 132.945312 153.3125 133.378906 C 151.128906 135.09375 147.101562 138.234375 141.519531 141.941406 Z M 135.902344 147.421875 C 136.277344 147.421875 136.621094 147.449219 136.996094 147.449219 C 138.179688 147.449219 139.398438 147.359375 140.582031 147.203125 C 140.582031 147.203125 137.460938 147.015625 135.933594 146.953125 Z M 114.34375 124.726562 C 114.9375 124.257812 118.898438 121.394531 124.484375 120.179688 C 130.503906 118.871094 135.996094 120.273438 135.996094 120.273438 C 135.964844 120.273438 132.875 119.214844 128.726562 119.246094 C 131.753906 117.003906 135.558594 116.070312 139.273438 115.386719 C 139.832031 115.292969 140.425781 115.167969 140.988281 115.074219 C 144.359375 114.484375 147.851562 113.890625 150.972656 112.367188 C 150.972656 112.367188 144.234375 114.046875 140.894531 114.640625 C 140.300781 114.730469 139.738281 114.824219 139.179688 114.949219 C 135.214844 115.667969 131.097656 116.695312 127.945312 119.277344 C 126.824219 119.339844 125.605469 119.464844 124.390625 119.714844 C 118.242188 121.019531 114 124.351562 113.96875 124.414062 L 113.875 124.476562 L 113.875 124.570312 C 113.875 124.664062 114.15625 126.46875 114.3125 127.527344 C 114.21875 126.53125 114.3125 125.128906 114.34375 124.726562 Z M 114.3125 127.527344 C 114.34375 127.808594 114.375 128.085938 114.4375 128.273438 C 114.4375 128.273438 114.375 127.964844 114.3125 127.527344 Z M 169.035156 107.695312 C 167.007812 107.105469 164.667969 107.042969 162.109375 107.539062 C 159.832031 107.976562 155.652344 109.96875 155.652344 109.96875 C 157.773438 109.191406 159.957031 108.414062 162.203125 107.976562 C 164.699219 107.507812 169.035156 107.695312 169.035156 107.695312 Z M 161.984375 88.207031 C 162.765625 90.699219 163.859375 93.128906 164.917969 95.492188 C 166.136719 98.203125 167.414062 101.035156 168.164062 103.929688 C 168.164062 103.929688 166.570312 98.015625 165.324219 95.273438 C 164.261719 92.941406 163.171875 90.542969 162.421875 88.050781 C 162.078125 86.964844 161.796875 85.8125 161.515625 84.722656 C 160.800781 81.886719 160.050781 78.929688 158.367188 76.503906 C 158.367188 76.503906 160.363281 82.042969 161.050781 84.847656 C 161.363281 85.96875 161.640625 87.085938 161.984375 88.207031 Z M 138.148438 117.8125 L 138.117188 117.78125 C 137.710938 117.628906 137.277344 117.410156 136.808594 117.566406 L 136.933594 118 C 137.246094 117.90625 137.585938 118.0625 137.929688 118.21875 L 137.960938 118.25 C 138.929688 118.65625 139.957031 118.933594 140.957031 119.214844 C 141.425781 119.339844 141.894531 119.464844 142.328125 119.621094 C 143.546875 119.992188 146.542969 121.363281 146.542969 121.363281 C 145.355469 120.148438 143.734375 119.558594 142.453125 119.183594 C 141.988281 119.027344 141.519531 118.902344 141.050781 118.777344 C 140.113281 118.5 139.085938 118.21875 138.148438 117.8125 Z M 168.816406 111.992188 C 166.074219 114.484375 158.898438 117.253906 158.898438 117.253906 C 162.671875 116.664062 166.292969 114.917969 169.128906 112.335938 Z M 159.269531 126.53125 C 162.953125 123.386719 164.980469 118.75 164.980469 118.75 C 163.140625 121.363281 161.113281 123.882812 158.929688 126.21875 Z M 125.480469 116.816406 C 124.859375 117.691406 124.265625 118.53125 123.390625 119.089844 L 123.640625 119.496094 C 124.578125 118.871094 125.230469 117.96875 125.855469 117.097656 C 126.386719 116.351562 127.355469 114.980469 127.632812 114.546875 C 131.160156 113.703125 134.65625 112.707031 137.898438 111.058594 C 138.585938 110.714844 139.273438 110.34375 139.925781 109.96875 C 142.296875 108.660156 147.382812 106.792969 147.382812 106.792969 C 144.605469 106.824219 142.113281 108.226562 139.707031 109.5625 C 139.054688 109.9375 138.367188 110.3125 137.679688 110.652344 C 133.375 112.832031 124.046875 115.386719 124.046875 115.386719 C 125.171875 115.136719 126.324219 114.886719 127.480469 114.609375 C 126.667969 115.167969 126.074219 116.007812 125.480469 116.816406 Z M 105.453125 112.769531 L 105.886719 112.585938 C 104.765625 110.0625 103.765625 104.519531 103.765625 104.519531 C 103.734375 107.355469 104.296875 110.1875 105.453125 112.769531 Z M 101.863281 88.863281 C 99.148438 89.765625 96.308594 90.230469 93.472656 90.230469 C 93.472656 90.230469 99.273438 90.230469 102.019531 89.296875 C 102.363281 89.171875 102.582031 89.171875 102.644531 89.265625 L 102.988281 88.957031 C 102.675781 88.582031 102.082031 88.800781 101.863281 88.863281 Z M 136.996094 81.980469 C 139.023438 80.644531 140.957031 77.71875 141.019531 77.59375 C 141.019531 77.59375 138.679688 80.300781 136.714844 81.578125 C 134.65625 82.945312 127.695312 87.460938 124.390625 88.425781 L 124.515625 88.863281 C 127.914062 87.898438 134.933594 83.351562 136.996094 81.980469 Z M 142.640625 73.640625 C 143.046875 73.855469 143.609375 74.042969 144.234375 74.042969 C 144.730469 74.042969 145.292969 73.917969 145.855469 73.640625 C 147.695312 72.671875 150.191406 69.933594 150.847656 68.472656 L 150.410156 68.285156 C 149.785156 69.683594 147.351562 72.332031 145.636719 73.234375 C 144.574219 73.792969 143.515625 73.609375 142.859375 73.234375 C 142.453125 73.015625 141.738281 72.519531 141.738281 72.519531 C 141.769531 72.921875 142.113281 73.328125 142.640625 73.640625 Z M 146.480469 69.933594 C 147.257812 69.34375 147.945312 68.625 148.570312 67.941406 L 148.226562 67.628906 C 147.601562 68.316406 146.949219 69.03125 146.199219 69.5625 C 145.386719 70.152344 144.515625 70.496094 143.703125 70.527344 C 143.703125 70.527344 145.574219 70.589844 146.480469 69.933594 Z M 111.691406 134.78125 L 112.160156 134.78125 C 112.160156 134.71875 112.160156 133.222656 110.816406 130.359375 C 110.816406 130.328125 111.691406 134.75 111.691406 134.78125 Z M 58.589844 85 C 57.996094 85.25 57.46875 85.65625 56.9375 86.027344 C 56.28125 86.527344 55.035156 87.585938 55.035156 87.585938 C 55.875 87.398438 56.5625 86.902344 57.21875 86.402344 C 57.714844 86.027344 58.214844 85.65625 58.746094 85.4375 C 59.527344 85.125 60.398438 85.09375 61.179688 85.09375 C 62.304688 85.09375 64.675781 84.816406 64.675781 84.816406 C 63.519531 84.691406 62.367188 84.628906 61.179688 84.628906 C 60.398438 84.628906 59.464844 84.660156 58.589844 85 Z M 75.75 95.773438 C 76.28125 96.769531 78.402344 100.347656 78.402344 100.347656 C 78.058594 99.230469 77.589844 98.171875 77.058594 97.144531 Z M 70.414062 86.246094 C 70.257812 87.867188 71.976562 90.511719 71.976562 90.511719 C 71.382812 89.234375 70.726562 87.773438 70.882812 86.277344 Z M 59.871094 98.761719 C 59.871094 98.761719 60.492188 97.921875 60.648438 97.453125 C 60.867188 96.832031 61.085938 96.179688 60.929688 95.523438 L 60.460938 95.648438 C 60.585938 96.179688 60.398438 96.738281 60.210938 97.328125 C 60.054688 97.796875 59.902344 98.265625 59.871094 98.761719 Z M 58.246094 97.296875 C 58.246094 97.296875 57.1875 96.925781 56.78125 96.738281 L 56.71875 96.894531 C 56.6875 96.675781 56.6875 96.519531 56.65625 96.394531 C 56.65625 96.394531 56.65625 96.644531 56.65625 97.019531 L 56.59375 97.175781 C 56.625 97.175781 56.625 97.207031 56.65625 97.207031 C 56.65625 98.480469 56.625 101.003906 56.6875 102.714844 C 56.71875 104.644531 57.25 105.859375 57.25 105.859375 C 57.21875 105.703125 57.1875 104.179688 57.15625 102.714844 C 57.125 100.847656 56.90625 98.542969 56.78125 97.238281 C 57.0625 97.328125 57.34375 97.390625 57.621094 97.390625 C 57.839844 97.359375 58.027344 97.359375 58.246094 97.296875 Z M 55.8125 94.839844 L 55.46875 94.527344 C 55.003906 95.058594 53.691406 95.960938 53.691406 95.960938 C 54.503906 95.867188 55.28125 95.460938 55.8125 94.839844 Z M 56.28125 160.867188 C 56.71875 160.652344 56.84375 160.152344 56.90625 159.714844 C 57.03125 158.84375 57.09375 157.941406 57.0625 157.070312 C 57.0625 157.070312 56.5625 158.8125 56.4375 159.65625 C 56.40625 159.964844 56.28125 160.867188 56.28125 160.867188 Z M 58.308594 154.796875 C 59.339844 155.855469 59.683594 159 59.683594 159 C 60.492188 156.074219 58.308594 154.796875 58.308594 154.796875 Z M 74.253906 83.289062 C 73.753906 83.382812 73.253906 83.570312 72.785156 83.726562 C 72.039062 84.003906 70.507812 84.660156 70.507812 84.660156 C 71.351562 84.722656 72.160156 84.441406 72.941406 84.160156 C 73.378906 84.003906 73.847656 83.820312 74.316406 83.726562 C 75.75 83.445312 78.652344 84.691406 78.652344 84.691406 C 77.558594 83.539062 75.84375 82.976562 74.253906 83.289062 Z M 74.253906 83.289062 " fill-opacity="1" fill-rule="nonzero"/></svg>